<svg width="25" height="17" viewBox="0 0 25 17" fill="none" xmlns="http://www.w3.org/2000/svg">
<path fill-rule="evenodd" clip-rule="evenodd" d="M3.59449 0.840203C3.41638 0.887929 3.27899 1.02981 3.23702 1.20937C3.19506 1.38893 3.25533 1.57701 3.39384 1.69874L10.0307 7.5314L6.62771 8.44323L4.11526 7.20771C3.35449 6.8336 2.48378 6.74833 1.66489 6.96775L0.510252 7.27714C0.334683 7.32418 0.198472 7.4628 0.154508 7.63916C0.110544 7.81553 0.165752 8.00186 0.298697 8.12581L4.01921 11.5946C5.15405 12.6526 6.7539 13.0515 8.25258 12.6499L22.3957 8.86025C23.4923 8.56642 23.8188 7.16906 22.9661 6.41966C21.6835 5.29249 19.9225 4.8809 18.2732 5.32283L16.3748 5.83151L8.07309 0.764692C7.25548 0.265673 6.26907 0.123553 5.34384 0.371468L3.59449 0.840203ZM11.3926 7.39699L4.75574 1.56433L5.60265 1.33739C6.26353 1.16031 6.96811 1.26183 7.55212 1.61827L16.0367 6.79672C16.1535 6.86801 16.2944 6.88831 16.4266 6.85289L18.532 6.28876C19.8583 5.93337 21.2745 6.26436 22.306 7.17081C22.5588 7.39297 22.4619 7.80722 22.1369 7.89432L7.99376 11.684C6.82812 11.9963 5.58379 11.6861 4.70114 10.8632L1.64046 8.00958L1.92371 7.93368C2.50863 7.77695 3.13056 7.83785 3.67397 8.10508L6.35502 9.4235C6.4637 9.47694 6.58808 9.48912 6.70507 9.45778L11.1919 8.25552C11.3701 8.2078 11.5074 8.06591 11.5494 7.88635C11.5914 7.70679 11.5311 7.51871 11.3926 7.39699Z" fill="white"/>
<path d="M1.00009 15.2453C0.723945 15.2453 0.500087 15.4691 0.500087 15.7453C0.500087 16.0214 0.723945 16.2453 1.00009 16.2453H24.0001C24.2762 16.2453 24.5001 16.0214 24.5001 15.7453C24.5001 15.4691 24.2762 15.2453 24.0001 15.2453H1.00009Z" fill="white"/>
</svg>
