<svg width="24" height="24" viewBox="0 0 24 24" fill="none" xmlns="http://www.w3.org/2000/svg">
    <circle cx="12" cy="12" r="8" fill="#3964D8"/>
    <path fill-rule="evenodd" clip-rule="evenodd" d="M12 8C11.6318 8 11.3333 8.29848 11.3333 8.66667V11.3333H8.66667C8.29848 11.3333 8 11.6318 8 12C8 12.3682 8.29848 12.6667 8.66667 12.6667H11.3333V15.3333C11.3333 15.7015 11.6318 16 12 16C12.3682 16 12.6667 15.7015 12.6667 15.3333V12.6667H15.3333C15.7015 12.6667 16 12.3682 16 12C16 11.6318 15.7015 11.3333 15.3333 11.3333H12.6667V8.66667C12.6667 8.29848 12.3682 8 12 8Z" fill="white"/>
</svg>
