<svg width="24" height="24" viewBox="0 0 24 24" fill="none" xmlns="http://www.w3.org/2000/svg">
<path d="M3.5 6C3.5 4.61929 4.61929 3.5 6 3.5H12C12.2761 3.5 12.5 3.72386 12.5 4C12.5 4.27614 12.2761 4.5 12 4.5H6C5.17157 4.5 4.5 5.17157 4.5 6V18C4.5 18.8284 5.17157 19.5 6 19.5H18C18.8284 19.5 19.5 18.8284 19.5 18V12.8889C19.5 12.6127 19.7239 12.3889 20 12.3889C20.2761 12.3889 20.5 12.6127 20.5 12.8889V18C20.5 19.3807 19.3807 20.5 18 20.5H6C4.61929 20.5 3.5 19.3807 3.5 18V6Z" fill="#131D2D"/>
<path fill-rule="evenodd" clip-rule="evenodd" d="M15.8232 4.35355C16.409 3.76777 17.3587 3.76777 17.9445 4.35355L19.8918 6.3008C20.4775 6.88658 20.4775 7.83633 19.8918 8.42212L11.6886 16.6252C11.4073 16.9065 11.0258 17.0646 10.628 17.0646L7.68073 17.0646C7.40459 17.0646 7.18073 16.8407 7.18073 16.5646L7.18073 13.6173C7.18073 13.2195 7.33877 12.838 7.62007 12.5567L15.8232 4.35355ZM17.2374 5.06066C17.0421 4.8654 16.7256 4.8654 16.5303 5.06066L15.649 5.94193L18.3034 8.59627L19.1846 7.71501C19.3799 7.51975 19.3799 7.20316 19.1846 7.0079L17.2374 5.06066ZM17.5963 9.30338L14.9419 6.64903L8.32718 13.2638C8.23341 13.3575 8.18073 13.4847 8.18073 13.6173L8.18073 16.0646L10.628 16.0646C10.7606 16.0646 10.8878 16.0119 10.9815 15.9181L17.5963 9.30338Z" fill="#131D2D"/>
</svg>
