<svg width="24" height="24" viewBox="0 0 24 24" fill="none" xmlns="http://www.w3.org/2000/svg">
<path fill-rule="evenodd" clip-rule="evenodd" d="M3 4.5C3 3.11929 4.11929 2 5.5 2H11.0858C11.4836 2 11.8651 2.15804 12.1464 2.43934L17.5607 7.85355C17.842 8.13486 18 8.51639 18 8.91421V11.5C18 11.7761 17.7761 12 17.5 12C17.2239 12 17 11.7761 17 11.5V9.5H13C11.6193 9.5 10.5 8.38071 10.5 7V3H5.5C4.67157 3 4 3.67157 4 4.5V18.5C4 19.3284 4.67157 20 5.5 20H12C12.2761 20 12.5 20.2239 12.5 20.5C12.5 20.7761 12.2761 21 12 21H5.5C4.11929 21 3 19.8807 3 18.5V4.5ZM11.5 3.20711V7C11.5 7.82843 12.1716 8.5 13 8.5H16.7929L11.5 3.20711Z" fill="#131D2D"/>
<path d="M6 7.5C5.72386 7.5 5.5 7.72386 5.5 8C5.5 8.27614 5.72386 8.5 6 8.5H9C9.27614 8.5 9.5 8.27614 9.5 8C9.5 7.72386 9.27614 7.5 9 7.5H6Z" fill="#131D2D"/>
<path d="M5.5 12C5.5 11.7239 5.72386 11.5 6 11.5H13C13.2761 11.5 13.5 11.7239 13.5 12C13.5 12.2761 13.2761 12.5 13 12.5H6C5.72386 12.5 5.5 12.2761 5.5 12Z" fill="#131D2D"/>
<path d="M5.5 16C5.5 15.7239 5.72386 15.5 6 15.5H13C13.2761 15.5 13.5 15.7239 13.5 16C13.5 16.2761 13.2761 16.5 13 16.5H6C5.72386 16.5 5.5 16.2761 5.5 16Z" fill="#131D2D"/>
<path fill-rule="evenodd" clip-rule="evenodd" d="M21.6607 11.8536C21.0749 11.2678 20.1251 11.2678 19.5393 11.8536L13.7929 17.6C13.6054 17.7875 13.5 18.0419 13.5 18.3071V20C13.5 20.5523 13.9477 21 14.5 21H16.1929C16.4581 21 16.7125 20.8946 16.9 20.7071L22.6464 14.9607C23.2322 14.3749 23.2322 13.4251 22.6464 12.8393L21.6607 11.8536ZM20.2464 12.5607C20.4417 12.3654 20.7583 12.3654 20.9536 12.5607L21.9393 13.5464C22.1346 13.7417 22.1346 14.0583 21.9393 14.2536L21.45 14.7429L19.7571 13.05L20.2464 12.5607ZM19.05 13.7571L20.7429 15.45L16.1929 20H14.5V18.3071L19.05 13.7571Z" fill="#131D2D"/>
</svg>
