<svg width="20" height="18" viewBox="0 0 20 18" fill="none" xmlns="http://www.w3.org/2000/svg">
    <path d="M18.0061 7.65534C17.9277 7.64261 17.8484 7.63675 17.769 7.63777H4.25373L4.54844 7.5007C4.8365 7.36436 5.09856 7.1788 5.32289 6.95242L9.11292 3.16238C9.61208 2.68589 9.69595 1.91936 9.31168 1.34618C8.86444 0.735398 8.00676 0.602782 7.39593 1.05002C7.34658 1.08617 7.29968 1.12558 7.2556 1.16799L0.402017 8.02157C-0.133591 8.55658 -0.134062 9.42446 0.400946 9.96007L0.402017 9.96114L7.2556 16.8147C7.79164 17.3493 8.65952 17.3481 9.1941 16.812C9.23616 16.7698 9.27544 16.7249 9.31168 16.6777C9.69595 16.1045 9.61208 15.338 9.11292 14.8615L5.32974 11.0646C5.12863 10.8632 4.89741 10.6944 4.64439 10.5643L4.23317 10.3792H17.6936C18.3938 10.4052 19.0082 9.91608 19.1397 9.22781C19.2609 8.48055 18.7534 7.77656 18.0061 7.65534Z" fill="#9CB1C7"/>
</svg>
