<svg width="24" height="24" viewBox="0 0 24 24" fill="none" xmlns="http://www.w3.org/2000/svg">
<path fill-rule="evenodd" clip-rule="evenodd" d="M13.1875 20.5C14.4647 20.5 15.5 19.4647 15.5 18.1875L15.5 6.9375C15.5 5.03902 13.961 3.5 12.0625 3.5C10.164 3.5 8.625 5.03902 8.625 6.9375L8.625 17.0625C8.625 17.3386 8.40114 17.5625 8.125 17.5625C7.84886 17.5625 7.625 17.3386 7.625 17.0625L7.625 6.9375C7.625 4.48674 9.61174 2.5 12.0625 2.5C14.5133 2.5 16.5 4.48674 16.5 6.9375L16.5 18.1875C16.5 20.0169 15.0169 21.5 13.1875 21.5C11.3581 21.5 9.875 20.0169 9.875 18.1875L9.875 6.9375C9.875 5.72938 10.8544 4.75 12.0625 4.75C13.2706 4.75 14.25 5.72938 14.25 6.9375L14.25 17.0625C14.25 17.3386 14.0261 17.5625 13.75 17.5625C13.4739 17.5625 13.25 17.3386 13.25 17.0625L13.25 6.9375C13.25 6.28166 12.7183 5.75 12.0625 5.75C11.4067 5.75 10.875 6.28166 10.875 6.9375L10.875 18.1875C10.875 19.4647 11.9103 20.5 13.1875 20.5Z" fill="#131D2D"/>
</svg>
