<svg width="24" height="24" viewBox="0 0 24 24" fill="none" xmlns="http://www.w3.org/2000/svg">
<path fill-rule="evenodd" clip-rule="evenodd" d="M5.99749 4.99707H7.99832C8.55084 4.99707 8.99874 5.44497 8.99874 5.99749V7.99832H4.99707V5.99749C4.99707 5.44497 5.44497 4.99707 5.99749 4.99707Z" stroke="#131D2D" stroke-linecap="round" stroke-linejoin="round"/>
<path d="M6.99792 2.99622V4.99705" stroke="#131D2D" stroke-linecap="round" stroke-linejoin="round"/>
<path d="M2.99625 21.0038V8.99877C2.99625 8.44625 3.44415 7.99835 3.99666 7.99835H9.99916C10.5517 7.99835 10.9996 8.44625 10.9996 8.99877V12" stroke="#131D2D" stroke-linecap="round" stroke-linejoin="round"/>
<path d="M14.0008 12V4.99706C14.0009 4.66903 14.1619 4.3619 14.4315 4.17509C14.7011 3.98828 15.0452 3.94553 15.3524 4.06067L20.3545 5.93645C20.7452 6.08292 21.004 6.45654 21.0037 6.87384V21.0037" stroke="#131D2D" stroke-linecap="round" stroke-linejoin="round"/>
<path d="M7.99832 21.0037V13.0004C7.99832 12.4479 8.44622 12 8.99874 12H15.0012C15.5538 12 16.0017 12.4479 16.0017 13.0004V21.0037" stroke="#131D2D" stroke-linecap="round" stroke-linejoin="round"/>
<path d="M10.4994 17.7024H13.5006" stroke="#131D2D" stroke-linecap="round" stroke-linejoin="round"/>
<path d="M10.4994 15.0012H13.5006" stroke="#131D2D" stroke-linecap="round" stroke-linejoin="round"/>
<path d="M22.0042 21.0037H1.99582" stroke="#131D2D" stroke-linecap="round" stroke-linejoin="round"/>
</svg>
