<svg width="24" height="24" viewBox="0 0 24 24" fill="none" xmlns="http://www.w3.org/2000/svg">
<path fill-rule="evenodd" clip-rule="evenodd" d="M13.8889 10.0222C13.8889 10.1327 13.9784 10.2222 14.0889 10.2222H16.8C16.9105 10.2222 17 10.3118 17 10.4222V11C16.3327 11 15.7416 11.3269 15.3783 11.8292C15.3429 11.7972 15.2959 11.7778 15.2444 11.7778H14.0889C13.9784 11.7778 13.8889 11.8673 13.8889 11.9778V13.1333C13.8889 13.2438 13.9784 13.3333 14.0889 13.3333H15V14H14C12.8954 14 12 14.8954 12 16C12 17.1046 12.8954 18 14 18H10.9778C10.8673 18 10.7778 17.9105 10.7778 17.8V15.0889C10.7778 14.9784 10.6882 14.8889 10.5778 14.8889H9.42222C9.31177 14.8889 9.22222 14.9784 9.22222 15.0889V17.8C9.22222 17.9105 9.13268 18 9.02222 18H3.2C3.08954 18 3 17.9105 3 17.8V7.31111C3 7.20065 3.08954 7.11111 3.2 7.11111H5.91111C6.02157 7.11111 6.11111 7.02157 6.11111 6.91111V4.2C6.11111 4.08954 6.20065 4 6.31111 4H13.6889C13.7993 4 13.8889 4.08954 13.8889 4.2V10.0222ZM5.91111 16.4444C6.02157 16.4444 6.11111 16.3549 6.11111 16.2444V15.0889C6.11111 14.9784 6.02157 14.8889 5.91111 14.8889H4.75556C4.6451 14.8889 4.55556 14.9784 4.55556 15.0889V16.2444C4.55556 16.3549 4.6451 16.4444 4.75556 16.4444H5.91111ZM5.91111 13.3333C6.02157 13.3333 6.11111 13.2438 6.11111 13.1333V11.9778C6.11111 11.8673 6.02157 11.7778 5.91111 11.7778H4.75556C4.6451 11.7778 4.55556 11.8673 4.55556 11.9778V13.1333C4.55556 13.2438 4.6451 13.3333 4.75556 13.3333H5.91111ZM5.91111 10.2222C6.02157 10.2222 6.11111 10.1327 6.11111 10.0222V8.86667C6.11111 8.75621 6.02157 8.66667 5.91111 8.66667H4.75556C4.6451 8.66667 4.55556 8.75621 4.55556 8.86667V10.0222C4.55556 10.1327 4.6451 10.2222 4.75556 10.2222H5.91111ZM9.02222 13.3333C9.13268 13.3333 9.22222 13.2438 9.22222 13.1333V11.9778C9.22222 11.8673 9.13268 11.7778 9.02222 11.7778H7.86667C7.75621 11.7778 7.66667 11.8673 7.66667 11.9778V13.1333C7.66667 13.2438 7.75621 13.3333 7.86667 13.3333H9.02222ZM9.02222 10.2222C9.13268 10.2222 9.22222 10.1327 9.22222 10.0222V8.86667C9.22222 8.75621 9.13268 8.66667 9.02222 8.66667H7.86667C7.75621 8.66667 7.66667 8.75621 7.66667 8.86667V10.0222C7.66667 10.1327 7.75621 10.2222 7.86667 10.2222H9.02222ZM9.02222 7.11111C9.13268 7.11111 9.22222 7.02157 9.22222 6.91111V5.75556C9.22222 5.6451 9.13268 5.55556 9.02222 5.55556H7.86667C7.75621 5.55556 7.66667 5.6451 7.66667 5.75556V6.91111C7.66667 7.02157 7.75621 7.11111 7.86667 7.11111H9.02222ZM12.1333 13.3333C12.2438 13.3333 12.3333 13.2438 12.3333 13.1333V11.9778C12.3333 11.8673 12.2438 11.7778 12.1333 11.7778H10.9778C10.8673 11.7778 10.7778 11.8673 10.7778 11.9778V13.1333C10.7778 13.2438 10.8673 13.3333 10.9778 13.3333H12.1333ZM12.1333 10.2222C12.2438 10.2222 12.3333 10.1327 12.3333 10.0222V8.86667C12.3333 8.75621 12.2438 8.66667 12.1333 8.66667H10.9778C10.8673 8.66667 10.7778 8.75621 10.7778 8.86667V10.0222C10.7778 10.1327 10.8673 10.2222 10.9778 10.2222H12.1333ZM12.1333 7.11111C12.2438 7.11111 12.3333 7.02157 12.3333 6.91111V5.75556C12.3333 5.6451 12.2438 5.55556 12.1333 5.55556H10.9778C10.8673 5.55556 10.7778 5.6451 10.7778 5.75556V6.91111C10.7778 7.02157 10.8673 7.11111 10.9778 7.11111H12.1333ZM16 13C16 12.4477 16.4477 12 17 12C17.5523 12 18 12.4477 18 13V15H20C20.5523 15 21 15.4477 21 16C21 16.5523 20.5523 17 20 17H18V19C18 19.5523 17.5523 20 17 20C16.4477 20 16 19.5523 16 19V17H14C13.4477 17 13 16.5523 13 16C13 15.4477 13.4477 15 14 15H16V13Z" fill="white"/>
</svg>
