<svg width="24" height="24" viewBox="0 0 24 24" fill="none" xmlns="http://www.w3.org/2000/svg">
<path d="M13.0355 8.37502C13.0355 6.51032 11.5386 5 9.69036 5C7.84215 5 6.34518 6.51032 6.34518 8.37502C6.34518 10.2397 7.84215 11.75 9.69036 11.75C11.5386 11.75 13.0355 10.2397 13.0355 8.37502ZM15.3154 10.0625C14.8494 10.0625 14.4716 10.4403 14.4716 10.9063C14.4716 11.3723 14.8494 11.75 15.3154 11.75H16.9805V13.445C16.9805 13.9069 17.355 14.2813 17.8168 14.2813C18.2787 14.2813 18.6531 13.9069 18.6531 13.445V11.75H20.3183C20.7842 11.75 21.162 11.3723 21.162 10.9063C21.162 10.4403 20.7842 10.0625 20.3183 10.0625H18.6531V8.36756C18.6531 7.90569 18.2787 7.53127 17.8168 7.53127C17.355 7.53127 16.9805 7.90569 16.9805 8.36756V10.0625H15.3154ZM3 16.8126V18.0001C3 18.2762 3.22386 18.5001 3.5 18.5001H15.8807C16.1569 18.5001 16.3807 18.2762 16.3807 18.0001V16.8126C16.3807 14.5682 11.9233 13.4376 9.69036 13.4376C7.45745 13.4376 3 14.5682 3 16.8126Z" fill="white"/>
</svg>
