<svg width="24" height="24" viewBox="0 0 24 24" fill="none" xmlns="http://www.w3.org/2000/svg">
<path fill-rule="evenodd" clip-rule="evenodd" d="M6.66667 4C5.93029 4 5.33333 4.58547 5.33333 5.30769L6 5.30769C7.10457 5.30769 8 6.1859 8 7.26923C8 8.35256 7.10457 9.23077 6 9.23077H5.33333V10.5385H6C7.10457 10.5385 8 11.4167 8 12.5C8 13.5833 7.10457 14.4615 6 14.4615H5.33333V15.7692H6C7.10457 15.7692 8 16.6474 8 17.7308C8 18.8141 7.10457 19.6923 6 19.6923H5.33333C5.33333 20.4145 5.93029 21 6.66667 21H18.6667C19.403 21 20 20.4145 20 19.6923V5.30769C20 4.58547 19.403 4 18.6667 4H6.66667ZM15.3333 9.88462C15.3333 10.9684 14.4383 11.8462 13.3333 11.8462C12.2283 11.8462 11.3333 10.9684 11.3333 9.88462C11.3333 8.80087 12.2283 7.92308 13.3333 7.92308C14.4383 7.92308 15.3333 8.80087 15.3333 9.88462ZM9.33333 14.7885C9.33333 13.484 11.9983 12.8269 13.3333 12.8269C14.6683 12.8269 17.3333 13.484 17.3333 14.7885V15.5077C17.3333 15.6521 17.2139 15.7692 17.0667 15.7692H9.6C9.45272 15.7692 9.33333 15.6521 9.33333 15.5077V14.7885Z" fill="white"/>
<path d="M4 7.26923C4 6.90812 4.29848 6.61538 4.66667 6.61538H6C6.36819 6.61538 6.66667 6.90812 6.66667 7.26923C6.66667 7.63034 6.36819 7.92308 6 7.92308H4.66667C4.29848 7.92308 4 7.63034 4 7.26923Z" fill="white"/>
<path d="M4.66667 11.8462C4.29848 11.8462 4 12.1389 4 12.5C4 12.8611 4.29848 13.1538 4.66667 13.1538H6C6.36819 13.1538 6.66667 12.8611 6.66667 12.5C6.66667 12.1389 6.36819 11.8462 6 11.8462H4.66667Z" fill="white"/>
<path d="M4 17.7308C4 17.3697 4.29848 17.0769 4.66667 17.0769H6C6.36819 17.0769 6.66667 17.3697 6.66667 17.7308C6.66667 18.0919 6.36819 18.3846 6 18.3846H4.66667C4.29848 18.3846 4 18.0919 4 17.7308Z" fill="white"/>
</svg>
