<svg width="24" height="24" viewBox="0 0 24 24" fill="none" xmlns="http://www.w3.org/2000/svg">
<path d="M9 8L12 4L15 8H13V11H11V8H9Z" fill="#3964D8"/>
<path d="M10 5H7.51559C7.10449 5 6.73527 5.2516 6.58489 5.63421L5 9.66667L5.00002 16.6667C5.00002 17.9553 6.04469 19 7.33335 19H16.6667C17.9553 19 19 17.9553 19 16.6667V9.66667L17.4151 5.63421C17.2647 5.25159 16.8955 5 16.4844 5H14L15.4 6.74995H16.0214L17.2974 9.66667H15.5L13.75 12H10.25L8.50002 9.66667H6.70258L7.97864 6.74995H8.6L10 5Z" fill="#3964D8"/>
</svg>
