<svg width="24" height="24" viewBox="0 0 24 24" fill="none" xmlns="http://www.w3.org/2000/svg">
<path d="M7.5 9C7.22386 9 7 9.22386 7 9.5V10.5C7 10.7761 7.22386 11 7.5 11H8.5C8.77614 11 9 10.7761 9 10.5V9.5C9 9.22386 8.77614 9 8.5 9H7.5Z" fill="#131D2D"/>
<path d="M7.5 12C7.22386 12 7 12.2239 7 12.5V13.5C7 13.7761 7.22386 14 7.5 14H8.5C8.77614 14 9 13.7761 9 13.5V12.5C9 12.2239 8.77614 12 8.5 12H7.5Z" fill="#131D2D"/>
<path d="M11.5 9C11.2239 9 11 9.22386 11 9.5V10.5C11 10.7761 11.2239 11 11.5 11H12.5C12.7761 11 13 10.7761 13 10.5V9.5C13 9.22386 12.7761 9 12.5 9H11.5Z" fill="#131D2D"/>
<path d="M11.5 12C11.2239 12 11 12.2239 11 12.5V13.5C11 13.7761 11.2239 14 11.5 14H12.5C12.7761 14 13 13.7761 13 13.5V12.5C13 12.2239 12.7761 12 12.5 12H11.5Z" fill="#131D2D"/>
<path d="M15.5 9C15.2239 9 15 9.22386 15 9.5V10.5C15 10.7761 15.2239 11 15.5 11H16.5C16.7761 11 17 10.7761 17 10.5V9.5C17 9.22386 16.7761 9 16.5 9H15.5Z" fill="#131D2D"/>
<path d="M15.5 12C15.2239 12 15 12.2239 15 12.5V13.5C15 13.7761 15.2239 14 15.5 14H16.5C16.7761 14 17 13.7761 17 13.5V12.5C17 12.2239 16.7761 12 16.5 12H15.5Z" fill="#131D2D"/>
<path d="M7 15.5C7 15.2239 7.22386 15 7.5 15H8.5C8.77614 15 9 15.2239 9 15.5V16.5C9 16.7761 8.77614 17 8.5 17H7.5C7.22386 17 7 16.7761 7 16.5V15.5Z" fill="#131D2D"/>
<path d="M11.5 15C11.2239 15 11 15.2239 11 15.5V16.5C11 16.7761 11.2239 17 11.5 17H12.5C12.7761 17 13 16.7761 13 16.5V15.5C13 15.2239 12.7761 15 12.5 15H11.5Z" fill="#131D2D"/>
<path d="M15 15.5C15 15.2239 15.2239 15 15.5 15H16.5C16.7761 15 17 15.2239 17 15.5V16.5C17 16.7761 16.7761 17 16.5 17H15.5C15.2239 17 15 16.7761 15 16.5V15.5Z" fill="#131D2D"/>
<path fill-rule="evenodd" clip-rule="evenodd" d="M7.5 4C7.22386 4 7 4.22386 7 4.5V5H6C4.89543 5 4 5.89543 4 7V18C4 19.1046 4.89543 20 6 20H18C19.1046 20 20 19.1046 20 18V7C20 5.89543 19.1046 5 18 5H17V4.5C17 4.22386 16.7761 4 16.5 4C16.2239 4 16 4.22386 16 4.5V5H8V4.5C8 4.22386 7.77614 4 7.5 4ZM16 6.5V6H8V6.5C8 6.77614 7.77614 7 7.5 7C7.22386 7 7 6.77614 7 6.5V6H6C5.44772 6 5 6.44772 5 7V18C5 18.5523 5.44772 19 6 19H18C18.5523 19 19 18.5523 19 18V7C19 6.44772 18.5523 6 18 6H17V6.5C17 6.77614 16.7761 7 16.5 7C16.2239 7 16 6.77614 16 6.5Z" fill="#131D2D"/>
</svg>
