<svg width="24" height="24" viewBox="0 0 24 24" fill="none" xmlns="http://www.w3.org/2000/svg">
<path fill-rule="evenodd" clip-rule="evenodd" d="M3 4.5C3 3.11929 4.11929 2 5.5 2H11.0858C11.4836 2 11.8651 2.15804 12.1464 2.43934L17.5607 7.85355C17.842 8.13486 18 8.51639 18 8.91421V11.5C18 11.7761 17.7761 12 17.5 12C17.2239 12 17 11.7761 17 11.5V9.5H13C11.6193 9.5 10.5 8.38071 10.5 7V3H5.5C4.67157 3 4 3.67157 4 4.5V18.5C4 19.3284 4.67157 20 5.5 20H14.5C14.7761 20 15 20.2239 15 20.5C15 20.7761 14.7761 21 14.5 21H5.5C4.11929 21 3 19.8807 3 18.5V4.5ZM11.5 3.20711V7C11.5 7.82843 12.1716 8.5 13 8.5H16.7929L11.5 3.20711Z" fill="#131D2D"/>
<path d="M6 7.5C5.72386 7.5 5.5 7.72386 5.5 8C5.5 8.27614 5.72386 8.5 6 8.5H9C9.27614 8.5 9.5 8.27614 9.5 8C9.5 7.72386 9.27614 7.5 9 7.5H6Z" fill="#131D2D"/>
<path d="M18 14C16.9086 14 16 14.914 16 16.0714C16 16.3476 15.7761 16.5714 15.5 16.5714C15.2239 16.5714 15 16.3476 15 16.0714C15 14.3885 16.33 13 18 13C19.67 13 21 14.3885 21 16.0714C21 17.5825 19.9278 18.8562 18.5 19.1006V19.5C18.5 19.7761 18.2761 20 18 20C17.7239 20 17.5 19.7761 17.5 19.5V18.6429C17.5 18.3667 17.7239 18.1429 18 18.1429C19.0914 18.1429 20 17.2288 20 16.0714C20 14.914 19.0914 14 18 14Z" fill="#131D2D"/>
<path d="M6 11.5C5.72386 11.5 5.5 11.7239 5.5 12C5.5 12.2761 5.72386 12.5 6 12.5H13C13.2761 12.5 13.5 12.2761 13.5 12C13.5 11.7239 13.2761 11.5 13 11.5H6Z" fill="#131D2D"/>
<path d="M6 15.5C5.72386 15.5 5.5 15.7239 5.5 16C5.5 16.2761 5.72386 16.5 6 16.5H13C13.2761 16.5 13.5 16.2761 13.5 16C13.5 15.7239 13.2761 15.5 13 15.5H6Z" fill="#131D2D"/>
<path d="M18 21.5C18.2761 21.5 18.5 21.2761 18.5 21C18.5 20.7239 18.2761 20.5 18 20.5C17.7239 20.5 17.5 20.7239 17.5 21C17.5 21.2761 17.7239 21.5 18 21.5Z" fill="#131D2D"/>
</svg>
