<svg width="25" height="25" viewBox="0 0 25 25" fill="none" xmlns="http://www.w3.org/2000/svg">
<path d="M3.00125 19.0079C3.00125 20.113 3.89705 21.0088 5.00208 21.0088" stroke="#131D2D" stroke-linecap="round" stroke-linejoin="round"/>
<path d="M3.00125 5.00208V19.0079" stroke="#131D2D" stroke-linecap="round" stroke-linejoin="round"/>
<path d="M9.00376 21.0088H5.00209" stroke="#131D2D" stroke-linecap="round" stroke-linejoin="round"/>
<path d="M21.0087 5.00205C21.0087 3.89702 20.1129 3.00122 19.0079 3.00122" stroke="#131D2D" stroke-linecap="round" stroke-linejoin="round"/>
<path d="M21.0088 8.00333V5.00208" stroke="#131D2D" stroke-linecap="round" stroke-linejoin="round"/>
<path d="M5.00209 3.00125H19.0079" stroke="#131D2D" stroke-linecap="round" stroke-linejoin="round"/>
<path d="M3.00125 5.00205C3.00125 3.89702 3.89705 3.00122 5.00208 3.00122" stroke="#131D2D" stroke-linecap="round" stroke-linejoin="round"/>
<path fill-rule="evenodd" clip-rule="evenodd" d="M8.50355 17.0691V17.0691C7.67478 17.0691 7.00293 16.3973 7.00293 15.5685V15.5685C7.00293 14.7397 7.67478 14.0679 8.50355 14.0679V14.0679C9.33233 14.0679 10.0042 14.7397 10.0042 15.5685V15.5685C10.0042 16.3973 9.33233 17.0691 8.50355 17.0691V17.0691Z" stroke="#131D2D" stroke-linecap="round" stroke-linejoin="round"/>
<path d="M7.00293 7.06497H15.0063" stroke="#131D2D" stroke-linecap="round" stroke-linejoin="round"/>
<path d="M7.00293 10.5664H12.005" stroke="#131D2D" stroke-linecap="round" stroke-linejoin="round"/>
<path fill-rule="evenodd" clip-rule="evenodd" d="M13.5056 20.5085V20.1024C13.5089 18.9468 14.4449 18.0108 15.6005 18.0075H18.9139C20.0695 18.0108 21.0054 18.9468 21.0087 20.1024V20.5085C21.0087 20.7848 20.7848 21.0088 20.5085 21.0088H14.0058C13.7296 21.0088 13.5056 20.7848 13.5056 20.5085Z" stroke="#131D2D" stroke-linecap="round" stroke-linejoin="round"/>
<path fill-rule="evenodd" clip-rule="evenodd" d="M15.2563 13.4976C15.2608 12.3936 16.1585 11.5018 17.2625 11.5048C18.3665 11.5077 19.2595 12.4043 19.258 13.5083C19.2565 14.6122 18.3612 15.5064 17.2572 15.5064C16.7251 15.5064 16.215 15.2945 15.8395 14.9176C15.4641 14.5406 15.2542 14.0296 15.2563 13.4976V13.4976Z" stroke="#131D2D" stroke-linecap="round" stroke-linejoin="round"/>
</svg>
