<svg width="24" height="24" viewBox="0 0 24 24" fill="none" xmlns="http://www.w3.org/2000/svg">
<path d="M17 15L15.5 16.5H21.5" stroke="#131D2D" stroke-linecap="round" stroke-linejoin="round"/>
<path d="M20 20.5L21.5 19L15.5 19" stroke="#131D2D" stroke-linecap="round" stroke-linejoin="round"/>
<path d="M4.99999 5.5C4.99999 4.11929 6.11927 3 7.49999 3L14.6716 3C15.3346 3 15.9705 3.26339 16.4393 3.73223L18.8535 6.14645C19.0488 6.34171 19.0488 6.65829 18.8535 6.85356C18.6583 7.04882 18.3417 7.04882 18.1464 6.85356L15.7322 4.43934C15.4509 4.15804 15.0694 4 14.6716 4L7.49999 4C6.67156 4 5.99999 4.67157 5.99999 5.5L5.99998 18.5C5.99998 19.3284 6.67156 20 7.49998 20L13.5 20C13.7761 20 14 20.2239 14 20.5C14 20.7761 13.7761 21 13.5 21H12L7.49998 21C6.11927 21 4.99998 19.8807 4.99998 18.5L4.99999 5.5Z" fill="#131D2D"/>
<path d="M18.5 14C18.7761 14 19 13.7761 19 13.5L19 9.5C19 8.67158 18.3284 8 17.5 8L15.5 8C15.2238 8 15 7.77614 15 7.5L15 5C15 4.72386 14.7761 4.5 14.5 4.5C14.2238 4.5 14 4.72386 14 5L14 7.5C14 8.32843 14.6716 9 15.5 9L17.5 9C17.7761 9 18 9.22386 18 9.5L18 13.5C18 13.7761 18.2238 14 18.5 14Z" fill="#131D2D"/>
<path d="M14 14L8.49999 14C8.22385 14 7.99999 14.2239 7.99999 14.5C7.99999 14.7761 8.22385 15 8.49999 15L14 15V14Z" fill="#131D2D"/>
<path d="M7.99999 11.5C7.99999 11.2239 8.22385 11 8.49999 11L15.5 11C15.7761 11 16 11.2239 16 11.5C16 11.7761 15.7761 12 15.5 12L8.49999 12C8.22385 12 7.99999 11.7761 7.99999 11.5Z" fill="#131D2D"/>
<path d="M7.99999 17.5C7.99999 17.2239 8.22384 17 8.49999 17L12.5 17C12.7761 17 13 17.2239 13 17.5C13 17.7761 12.7761 18 12.5 18L8.49999 18C8.22384 18 7.99999 17.7761 7.99999 17.5Z" fill="#131D2D"/>
</svg>
