<svg width="24" height="24" viewBox="0 0 24 24" fill="none" xmlns="http://www.w3.org/2000/svg">
<path fill-rule="evenodd" clip-rule="evenodd" d="M18.8749 19.4986C19.3071 19.1743 19.6935 18.731 19.9753 18.2499C19.6935 17.7689 19.3071 17.3256 18.8749 17.0014C18.4161 16.6573 17.9385 16.4706 17.4999 16.4706C17.0613 16.4706 16.5837 16.6573 16.125 17.0014C15.6927 17.3257 15.3063 17.769 15.0245 18.2501C15.3063 18.7311 15.6927 19.1744 16.1249 19.4986C16.5837 19.8427 17.0613 20.0294 17.4999 20.0294C17.9385 20.0294 18.4161 19.8427 18.8749 19.4986ZM17.4999 15.5C18.2263 15.5 18.9137 15.8039 19.4864 16.2334C20.0618 16.6651 20.5547 17.2472 20.9004 17.8678L20.9006 17.8682C21.0329 18.1061 21.0329 18.3935 20.9006 18.6315L20.9004 18.6319C20.5547 19.2526 20.0618 19.8348 19.4864 20.2665C18.9137 20.6961 18.2263 21 17.4999 21C16.7735 21 16.0861 20.6961 15.5135 20.2666C14.938 19.8349 14.4451 19.2528 14.0994 18.6322L14.0992 18.6318C13.9669 18.3939 13.9669 18.1065 14.0992 17.8685L14.0994 17.8681C14.4451 17.2474 14.938 16.6652 15.5134 16.2335C16.0861 15.8039 16.7735 15.5 17.4999 15.5ZM16.7928 18.9363C16.4023 18.5573 16.4023 17.9427 16.7928 17.5637C17.1833 17.1846 17.8165 17.1846 18.207 17.5637C18.5975 17.9427 18.5975 18.5573 18.207 18.9363C17.8165 19.3153 17.1833 19.3153 16.7928 18.9363Z" fill="#131D2D"/>
<path fill-rule="evenodd" clip-rule="evenodd" d="M4.99999 5.5C4.99999 4.11929 6.11928 3 7.49999 3L14.6716 3C15.3346 3 15.9705 3.26339 16.4393 3.73224L18.8535 6.14645C19.0488 6.34171 19.0488 6.65829 18.8535 6.85356C18.6583 7.04882 18.3417 7.04882 18.1464 6.85356L15.7322 4.43934C15.4509 4.15804 15.0694 4 14.6716 4L7.49999 4C6.67156 4 5.99999 4.67157 5.99999 5.5L5.99999 18.5C5.99999 19.3284 6.67156 20 7.49999 20L14.0781 20C14.3617 20.3356 14.6831 20.6437 15.0334 20.9065C15.0756 20.9381 15.1185 20.9693 15.1621 21L7.49999 21C6.11928 21 4.99999 19.8807 4.99999 18.5L4.99999 5.5ZM19 15.0256L19 9.5C19 8.67158 18.3284 8 17.5 8L15.5 8C15.2238 8 15 7.77614 15 7.5L15 5C15 4.72386 14.7761 4.5 14.5 4.5C14.2238 4.5 14 4.72386 14 5L14 7.5C14 8.32843 14.6716 9 15.5 9L17.5 9C17.7761 9 18 9.22386 18 9.5L18 14.7362C18.352 14.7872 18.6871 14.8892 19 15.0256ZM7.99999 11.5C7.99999 11.2239 8.22385 11 8.49999 11L15.5 11C15.7761 11 16 11.2239 16 11.5C16 11.7761 15.7761 12 15.5 12L8.49999 12C8.22385 12 7.99999 11.7761 7.99999 11.5ZM7.99999 14.5C7.99999 14.2239 8.22385 14 8.49999 14L15.5 14C15.7761 14 16 14.2239 16 14.5C16 14.7761 15.7761 15 15.5 15L8.49999 15C8.22385 15 7.99999 14.7761 7.99999 14.5ZM7.99999 17.5C7.99999 17.2239 8.22385 17 8.49999 17L12.5 17C12.7761 17 13 17.2239 13 17.5C13 17.7761 12.7761 18 12.5 18L8.49999 18C8.22385 18 7.99999 17.7761 7.99999 17.5Z" fill="#131D2D"/>
</svg>
