<svg width="24" height="24" viewBox="0 0 24 24" fill="none" xmlns="http://www.w3.org/2000/svg">
<path d="M20.241 14.996L21.248 11.563C21.624 10.282 20.664 9 19.329 9H9.488C8.605 9 7.826 9.579 7.572 10.426L5.245 18.183C5.1 18.668 4.653 19 4.147 19C3.513 19 3 18.487 3 17.853V5C3 3.895 3.895 3 5 3H9.465C9.799 3 10.111 3.167 10.297 3.446L11.703 5.555C11.888 5.833 12.201 6 12.535 6H17C18.105 6 19 6.895 19 8V9" stroke="#131D2D" stroke-linecap="round" stroke-linejoin="round"/>
<path d="M16.5 22C14.015 22 12 19.985 12 17.5C12 15.015 14.015 13 16.5 13C18.986 13 21 15.015 21 17.5C21 19.985 18.986 22 16.5 22" stroke="#131D2D" stroke-linecap="round" stroke-linejoin="round"/>
<path d="M15.12 17.38H18.12" stroke="#131D2D" stroke-linecap="round" stroke-linejoin="round"/>
<path d="M16.62 18.88V15.88" stroke="#131D2D" stroke-linecap="round" stroke-linejoin="round"/>
</svg>
