<svg width="24" height="24" viewBox="0 0 24 24" fill="none" xmlns="http://www.w3.org/2000/svg">
<path d="M7.5 3C6.11929 3 5 4.11929 5 5.5L5 18.5C5 19.8807 6.11929 21 7.5 21L16.5 21C17.8807 21 19 19.8807 19 18.5L19 9.5C19 8.67158 18.3284 8 17.5 8L15.5 8C15.2239 8 15 7.77614 15 7.5V5C15 4.72386 14.7761 4.5 14.5 4.5C14.2239 4.5 14 4.72386 14 5V7.5C14 8.32843 14.6716 9 15.5 9L17.5 9C17.7761 9 18 9.22386 18 9.5L18 18.5C18 19.3284 17.3284 20 16.5 20L7.5 20C6.67157 20 6 19.3284 6 18.5L6 5.5C6 4.67157 6.67158 4 7.5 4L14.6716 4C15.0694 4 15.4509 4.15804 15.7322 4.43934L18.1464 6.85356C18.3417 7.04882 18.6583 7.04882 18.8536 6.85356C19.0488 6.65829 19.0488 6.34171 18.8536 6.14645L16.4393 3.73223C15.9705 3.26339 15.3346 3 14.6716 3L7.5 3Z" fill="#131D2D"/>
<path d="M8.5 11C8.22386 11 8 11.2239 8 11.5C8 11.7761 8.22386 12 8.5 12L15.5 12C15.7761 12 16 11.7761 16 11.5C16 11.2239 15.7761 11 15.5 11L8.5 11Z" fill="#131D2D"/>
<path d="M8 14.5C8 14.2239 8.22386 14 8.5 14L15.5 14C15.7761 14 16 14.2239 16 14.5C16 14.7761 15.7761 15 15.5 15L8.5 15C8.22386 15 8 14.7761 8 14.5Z" fill="#131D2D"/>
<path d="M8.5 17C8.22386 17 8 17.2239 8 17.5C8 17.7761 8.22386 18 8.5 18L12.5 18C12.7761 18 13 17.7761 13 17.5C13 17.2239 12.7761 17 12.5 17L8.5 17Z" fill="#131D2D"/>
</svg>
