<svg width="24" height="24" viewBox="0 0 24 24" fill="none" xmlns="http://www.w3.org/2000/svg">
<path d="M5.33333 4C4.59695 4 4 4.58547 4 5.30769V18.3846C4 19.1068 4.59695 19.6923 5.33333 19.6923H11.3802C10.9264 18.9229 10.6667 18.0297 10.6667 17.0769C10.6667 14.188 13.0545 11.8462 16 11.8462C16.4604 11.8462 16.9072 11.9034 17.3333 12.0109V9.23077H13.3333C12.597 9.23077 12 8.6453 12 7.92308V4H5.33333Z" fill="#9CB1C7"/>
<path d="M13.3333 4V6.61538C13.3333 7.3376 13.9303 7.92308 14.6667 7.92308H17.3333L13.3333 4Z" fill="#9CB1C7"/>
<path fill-rule="evenodd" clip-rule="evenodd" d="M20 17.0769C20 19.2436 18.2091 21 16 21C13.7909 21 12 19.2436 12 17.0769C12 14.9103 13.7909 13.1538 16 13.1538C18.2091 13.1538 20 14.9103 20 17.0769ZM18.4714 15.3069C18.7318 15.5622 18.7318 15.9762 18.4714 16.2316L15.8047 18.847C15.5444 19.1023 15.1223 19.1023 14.8619 18.847L13.5286 17.5393C13.2682 17.2839 13.2682 16.8699 13.5286 16.6146C13.7889 16.3592 14.2111 16.3592 14.4714 16.6146L15.3333 17.4599L17.5286 15.3069C17.7889 15.0515 18.2111 15.0515 18.4714 15.3069Z" fill="#9CB1C7"/>
</svg>
