<svg width="24" height="24" viewBox="0 0 24 24" fill="none" xmlns="http://www.w3.org/2000/svg">
<path fill-rule="evenodd" clip-rule="evenodd" d="M16.5 21C18.9853 21 21 18.9853 21 16.5C21 14.0147 18.9853 12 16.5 12C14.0147 12 12 14.0147 12 16.5C12 18.9853 14.0147 21 16.5 21ZM17 13.5C17 13.2239 16.7761 13 16.5 13C16.2239 13 16 13.2239 16 13.5V16.5C16 16.6672 16.0836 16.8233 16.2227 16.916L17.7227 17.916C17.9524 18.0692 18.2628 18.0071 18.416 17.7773C18.5692 17.5476 18.5071 17.2372 18.2773 17.084L17 16.2324V13.5Z" fill="#3964D8"/>
<path fill-rule="evenodd" clip-rule="evenodd" d="M4 5.30769C4 4.58547 4.59695 4 5.33333 4H12V7.92308C12 8.6453 12.597 9.23077 13.3333 9.23077H17.3333V11.0627C17.0616 11.0214 16.7833 11 16.5 11C13.4624 11 11 13.4624 11 16.5C11 17.6903 11.3781 18.7922 12.0207 19.6923H11.3802H5.33333C4.59695 19.6923 4 19.1068 4 18.3846V5.30769ZM14.6667 7.92308C13.9303 7.92308 13.3333 7.3376 13.3333 6.61538V4L17.3333 7.92308H14.6667Z" fill="#3964D8"/>
</svg>
