<svg width="24" height="24" viewBox="0 0 24 24" fill="none" xmlns="http://www.w3.org/2000/svg">
<path fill-rule="evenodd" clip-rule="evenodd" d="M19.2087 9.59998H7.67138C6.8813 9.59998 6.24002 10.2403 6.24002 11.0313V11.0313C6.24002 11.5056 6.47522 11.9501 6.86786 12.216L11.6333 15.4454C12.7248 16.1846 14.1562 16.1846 15.2467 15.4454L20.0112 12.216C20.4048 11.9501 20.64 11.5065 20.64 11.0313V11.0304C20.64 10.2403 19.9997 9.59998 19.2087 9.59998V9.59998Z" stroke="#131D2D" stroke-linecap="round" stroke-linejoin="round"/>
<path d="M6.24002 11.0438V18.2399C6.24002 19.3007 7.09922 20.1599 8.16002 20.1599H18.72C19.7808 20.1599 20.64 19.3007 20.64 18.2399V11.0438" stroke="#131D2D" stroke-linecap="round" stroke-linejoin="round"/>
<path d="M18.2919 6.74683C18.2919 6.74683 14.8695 4.42747 13.0723 3.20923C12.4215 2.76859 11.5728 2.77147 10.9219 3.21211L4.2077 7.76251C3.68162 8.11867 3.36578 8.71387 3.36578 9.35035L3.36002 17.28" stroke="#131D2D" stroke-linecap="round" stroke-linejoin="round"/>
</svg>
