<svg width="72" height="72" viewBox="0 0 72 72" fill="none" xmlns="http://www.w3.org/2000/svg">
<path d="M19 31.5H26" stroke="#3964D8" stroke-width="4" stroke-linecap="round" stroke-linejoin="round"/>
<path d="M19 21.54H43" stroke="#3964D8" stroke-width="4" stroke-linecap="round" stroke-linejoin="round"/>
<path d="M19 42H23" stroke="#3964D8" stroke-width="4" stroke-linecap="round" stroke-linejoin="round"/>
<path d="M42.5 55.375C49.955 55.375 56 49.33 56 41.875C56 34.42 49.955 28.375 42.5 28.375C35.042 28.375 29 34.42 29 41.875C29 49.33 35.042 55.375 42.5 55.375" stroke="#3964D8" stroke-width="4" stroke-linecap="round" stroke-linejoin="round"/>
<path d="M52 52L63 63" stroke="#3964D8" stroke-width="4" stroke-linecap="round"/>
<path d="M30.048 57H16C12.685 57 10 54.315 10 51V15C10 11.685 12.685 9 16 9H46C49.315 9 52 11.685 52 15V25.456" stroke="#3964D8" stroke-width="4" stroke-linecap="round" stroke-linejoin="round"/>
</svg>
