<svg width="24" height="24" viewBox="0 0 24 24" fill="none" xmlns="http://www.w3.org/2000/svg">
<path d="M5 5.5C5 4.11929 6.11929 3 7.5 3L14.6716 3C15.3346 3 15.9705 3.26339 16.4393 3.73223L18.8536 6.14645C19.0488 6.34171 19.0488 6.65829 18.8536 6.85356C18.6583 7.04882 18.3417 7.04882 18.1464 6.85356L15.7322 4.43934C15.4509 4.15804 15.0694 4 14.6716 4L7.5 4C6.67158 4 6 4.67157 6 5.5L6 18.5C6 19.3284 6.67157 20 7.5 20L12.5 20C12.7761 20 13 20.2239 13 20.5C13 20.7761 12.7761 21 12.5 21H12L7.5 21C6.11929 21 5 19.8807 5 18.5L5 5.5Z" fill="#131D2D"/>
<path d="M18.5 13C18.7761 13 19 12.7761 19 12.5L19 9.5C19 8.67158 18.3284 8 17.5 8L15.5 8C15.2239 8 15 7.77614 15 7.5L15 5C15 4.72386 14.7761 4.5 14.5 4.5C14.2239 4.5 14 4.72386 14 5L14 7.5C14 8.32843 14.6716 9 15.5 9L17.5 9C17.7761 9 18 9.22386 18 9.5L18 12.5C18 12.7761 18.2239 13 18.5 13Z" fill="#131D2D"/>
<path d="M15 14.5C15 14.2239 14.7761 14 14.5 14L8.5 14C8.22386 14 8 14.2239 8 14.5C8 14.7761 8.22386 15 8.5 15L14.5 15C14.7761 15 15 14.7761 15 14.5Z" fill="#131D2D"/>
<path d="M8 11.5C8 11.2239 8.22386 11 8.5 11L15.5 11C15.7761 11 16 11.2239 16 11.5C16 11.7761 15.7761 12 15.5 12L8.5 12C8.22386 12 8 11.7761 8 11.5Z" fill="#131D2D"/>
<path d="M8 17.5C8 17.2239 8.22386 17 8.5 17L12.5 17C12.7761 17 13 17.2239 13 17.5C13 17.7761 12.7761 18 12.5 18L8.5 18C8.22386 18 8 17.7761 8 17.5Z" fill="#131D2D"/>
<path d="M18.5 16.5C18.7761 16.5 19 16.7239 19 17L19 18.7929L19.6464 18.1464C19.8417 17.9512 20.1583 17.9512 20.3536 18.1464C20.5488 18.3417 20.5488 18.6583 20.3536 18.8536L18.8536 20.3536C18.8056 20.4015 18.7504 20.4377 18.6914 20.4621C18.6324 20.4865 18.5678 20.5 18.5 20.5C18.43 20.5 18.3634 20.4856 18.303 20.4597C18.2506 20.4373 18.2013 20.4055 18.1575 20.3643L18.1452 20.3523L16.6464 18.8536C16.4512 18.6583 16.4512 18.3417 16.6464 18.1464C16.8417 17.9512 17.1583 17.9512 17.3536 18.1464L18 18.7929L18 17C18 16.7239 18.2239 16.5 18.5 16.5Z" fill="#131D2D"/>
<path fill-rule="evenodd" clip-rule="evenodd" d="M23 18.5C23 20.9853 20.9853 23 18.5 23C16.0147 23 14 20.9853 14 18.5C14 16.0147 16.0147 14 18.5 14C20.9853 14 23 16.0147 23 18.5ZM22 18.5C22 20.433 20.433 22 18.5 22C16.567 22 15 20.433 15 18.5C15 16.567 16.567 15 18.5 15C20.433 15 22 16.567 22 18.5Z" fill="#131D2D"/>
</svg>
