<svg width="24" height="24" viewBox="0 0 24 24" fill="none" xmlns="http://www.w3.org/2000/svg">
<path fill-rule="evenodd" clip-rule="evenodd" d="M3.94643 4.64645C4.1417 4.45118 4.45828 4.45118 4.65354 4.64645L19.6535 19.6464C19.8488 19.8417 19.8488 20.1583 19.6535 20.3536C19.4583 20.5488 19.1417 20.5488 18.9464 20.3536L3.94643 5.35355C3.75117 5.15829 3.75117 4.84171 3.94643 4.64645Z" fill="#9CB1C7"/>
<path fill-rule="evenodd" clip-rule="evenodd" d="M14.7152 5.51293C12.9689 4.82902 11.0311 4.82902 9.28482 5.51293C8.86848 5.67599 8.46441 5.86371 8.07445 6.07445L10.956 8.95602C11.2832 8.84254 11.6345 8.78092 12 8.78092C13.7678 8.78092 15.2008 10.2222 15.2008 12C15.2008 12.3612 15.1417 12.7085 15.0326 13.0326L18.2458 16.2458C19.1302 15.4093 19.8772 14.4242 20.4488 13.3248L20.8781 12.499C21.0406 12.1864 21.0406 11.8136 20.8781 11.501L20.4488 10.6752C19.2211 8.31386 17.1841 6.47989 14.7152 5.51293ZM17.153 17.153L14.2698 14.2698C13.69 14.8561 12.8872 15.2191 12 15.2191C10.2322 15.2191 8.79917 13.7779 8.79917 12C8.79917 11.1144 9.15479 10.3123 9.73025 9.73025L6.84703 6.84703C5.47793 7.84119 4.34531 9.14789 3.55123 10.6752L3.12188 11.501C2.95937 11.8136 2.95937 12.1864 3.12188 12.499L3.55123 13.3248C4.77893 15.6861 6.81586 17.5201 9.28482 18.4871C11.0311 19.171 12.9689 19.171 14.7152 18.4871C15.5872 18.1455 16.4053 17.6959 17.153 17.153Z" fill="#9CB1C7"/>
</svg>
