<svg width="24" height="24" viewBox="0 0 24 24" fill="none" xmlns="http://www.w3.org/2000/svg">
<path fill-rule="evenodd" clip-rule="evenodd" d="M9.28482 5.51293C11.0311 4.82902 12.9689 4.82902 14.7152 5.51293C17.1841 6.47989 19.2211 8.31386 20.4488 10.6752L20.8781 11.501C21.0406 11.8136 21.0406 12.1864 20.8781 12.499L20.4488 13.3248C19.2211 15.6861 17.1841 17.5201 14.7152 18.4871C12.9689 19.171 11.0311 19.171 9.28482 18.4871C6.81586 17.5201 4.77893 15.6861 3.55123 13.3248L3.12188 12.499C2.95937 12.1864 2.95937 11.8136 3.12188 11.501L3.55123 10.6752C4.77893 8.31386 6.81586 6.47989 9.28482 5.51293ZM12 15.2191C13.7678 15.2191 15.2008 13.7779 15.2008 12C15.2008 10.2222 13.7678 8.78092 12 8.78092C10.2322 8.78092 8.79917 10.2222 8.79917 12C8.79917 13.7779 10.2322 15.2191 12 15.2191Z" fill="#9CB1C7"/>
</svg>
