<svg width="24" height="24" viewBox="0 0 24 24" fill="none" xmlns="http://www.w3.org/2000/svg">
<path d="M4.5 5C4.22386 5 4 5.22386 4 5.5C4 5.77614 4.22386 6 4.5 6H18.5C18.7761 6 19 5.77614 19 5.5C19 5.22386 18.7761 5 18.5 5H4.5Z" fill="#131D2D"/>
<path d="M7.01894 13C7.04491 13.3414 7.09725 13.6754 7.17393 14H4.5C4.22386 14 4 13.7761 4 13.5C4 13.2239 4.22386 13 4.5 13H7.01894Z" fill="#131D2D"/>
<path d="M8.02182 9C7.81967 9.31575 7.64406 9.65013 7.49816 10H4.5C4.22386 10 4 9.77614 4 9.5C4 9.22386 4.22386 9 4.5 9H8.02182Z" fill="#131D2D"/>
<path d="M8.80957 17C9.17489 17.3807 9.5861 17.717 10.0343 18H4.5C4.22386 18 4 17.7761 4 17.5C4 17.2239 4.22386 17 4.5 17H8.80957Z" fill="#131D2D"/>
<path fill-rule="evenodd" clip-rule="evenodd" d="M17.0195 16.7266C16.0658 17.5217 14.8388 18 13.5 18C10.4624 18 8 15.5376 8 12.5C8 9.46243 10.4624 7 13.5 7C16.5376 7 19 9.46243 19 12.5C19 13.8387 18.5217 15.0658 17.7266 16.0195L21.3536 19.6464C21.5488 19.8417 21.5488 20.1583 21.3536 20.3536C21.1583 20.5488 20.8417 20.5488 20.6465 20.3536L17.0195 16.7266ZM18 12.5C18 14.9853 15.9853 17 13.5 17C11.0147 17 9 14.9853 9 12.5C9 10.0147 11.0147 8 13.5 8C15.9853 8 18 10.0147 18 12.5Z" fill="#131D2D"/>
</svg>
