<svg width="24" height="24" viewBox="0 0 24 24" fill="none" xmlns="http://www.w3.org/2000/svg">
<path fill-rule="evenodd" clip-rule="evenodd" d="M11.0034 4.21684C11.5718 3.71166 12.4282 3.71166 12.9965 4.21684L20.3493 10.7526C21.0365 11.3635 20.6044 12.5 19.6849 12.5H19V19C19 19.8284 18.3284 20.5 17.5 20.5H15.5C14.6716 20.5 14 19.8284 14 19V15C14 14.7239 13.7761 14.5 13.5 14.5H10.5C10.2238 14.5 9.99999 14.7239 9.99999 15V19C9.99999 19.8284 9.32842 20.5 8.49999 20.5H6.49999C5.67156 20.5 4.99999 19.8284 4.99999 19V12.5H4.31509C3.39557 12.5 2.96347 11.3635 3.65073 10.7526L11.0034 4.21684ZM12.3322 4.96425C12.1427 4.79585 11.8573 4.79585 11.6678 4.96425L4.31509 11.5H5.49999C5.77613 11.5 5.99999 11.7239 5.99999 12V19C5.99999 19.2761 6.22385 19.5 6.49999 19.5H8.49999C8.77613 19.5 8.99999 19.2761 8.99999 19V15C8.99999 14.1716 9.67156 13.5 10.5 13.5H13.5C14.3284 13.5 15 14.1716 15 15V19C15 19.2761 15.2238 19.5 15.5 19.5H17.5C17.7761 19.5 18 19.2761 18 19V12C18 11.7239 18.2238 11.5 18.5 11.5H19.6849L12.3322 4.96425Z" fill="#131D2D"/>
</svg>
