<svg width="18" height="18" viewBox="0 0 18 18" fill="none" xmlns="http://www.w3.org/2000/svg">
<path d="M15.0042 5.99665H12.0033C11.589 5.99665 11.2531 5.66077 11.2531 5.24644V2.24561" stroke="#9CB1C7" stroke-linecap="round" stroke-linejoin="round"/>
<path d="M4.50122 5.99665V3.74602C4.50122 2.91737 5.17298 2.24561 6.00164 2.24561H11.3821C11.78 2.24561 12.1616 2.40383 12.4429 2.68523L14.5645 4.80682C14.8459 5.08813 15.0041 5.46971 15.0041 5.86761V14.2489C15.0041 15.0776 14.3324 15.7494 13.5037 15.7494H6.00164C5.17298 15.7494 4.50122 15.0776 4.50122 14.2489V13.4987" stroke="#9CB1C7" stroke-linecap="round" stroke-linejoin="round"/>
<path d="M4.7946 8.24728C4.85472 8.30675 4.87298 8.39663 4.84083 8.47484C4.80868 8.55305 4.73249 8.60411 4.64793 8.60411C4.56337 8.60411 4.48718 8.55305 4.45503 8.47484C4.42289 8.39663 4.44115 8.30675 4.50127 8.24728C4.58287 8.16632 4.71449 8.16632 4.7961 8.24728" stroke="#9CB1C7" stroke-linecap="round" stroke-linejoin="round"/>
<path d="M9.75272 8.96C8.5997 8.78351 7.42727 9.12143 6.54507 9.88454C5.66286 10.6476 5.1596 11.7592 5.1682 12.9256C5.16937 13.1175 5.18467 13.3091 5.21396 13.4988" stroke="#9CB1C7" stroke-linecap="round" stroke-linejoin="round"/>
<rect x="2.25061" y="5.99667" width="7.50209" height="7.50209" rx="3" stroke="#9CB1C7" stroke-linecap="round" stroke-linejoin="round"/>
</svg>
