<svg width="16" height="16" viewBox="0 0 16 16" fill="none" xmlns="http://www.w3.org/2000/svg">
<path d="M7.19697 1.79561C7.65494 1.40146 8.34506 1.40146 8.80303 1.79561L14.7279 6.89491C15.2817 7.37154 14.9335 8.25827 14.1926 8.25827H13.6407V13.3297C13.6407 13.976 13.0995 14.5 12.432 14.5H10.8203C10.1528 14.5 9.61162 13.976 9.61162 13.3297V10.2088C9.61162 9.99336 9.43123 9.8187 9.20871 9.8187H6.79128C6.56877 9.8187 6.38838 9.99336 6.38838 10.2088V13.3297C6.38838 13.976 5.84722 14.5 5.17966 14.5H3.56804C2.90049 14.5 2.35933 13.976 2.35933 13.3297V8.25827H1.80743C1.06647 8.25827 0.71828 7.37154 1.27208 6.89491L7.19697 1.79561Z" fill="#3964D8"/>
</svg>
