<svg width="16" height="16" viewBox="0 0 16 16" fill="none" xmlns="http://www.w3.org/2000/svg">
<path d="M11.6 7.71429C12.704 7.71429 13.592 6.8 13.592 5.67347C13.592 4.54694 12.704 3.63265 11.6 3.63265C10.496 3.63265 9.6 4.54694 9.6 5.67347C9.6 6.8 10.496 7.71429 11.6 7.71429ZM5.6 6.89796C6.928 6.89796 7.992 5.80408 7.992 4.44898C7.992 3.09388 6.928 2 5.6 2C4.272 2 3.2 3.09388 3.2 4.44898C3.2 5.80408 4.272 6.89796 5.6 6.89796ZM11.6 9.34694C10.136 9.34694 7.2 10.098 7.2 11.5918V13.2286C7.2 13.339 7.28954 13.4286 7.4 13.4286H15.8C15.9105 13.4286 16 13.339 16 13.2286V11.5918C16 10.098 13.064 9.34694 11.6 9.34694ZM5.6 8.53061C3.736 8.53061 0 9.48571 0 11.3878V13.2286C0 13.339 0.0895431 13.4286 0.2 13.4286H5.4C5.51046 13.4286 5.6 13.339 5.6 13.2286V11.5918C5.6 10.967 5.8141 9.91841 7.04857 9.04233C7.19887 8.93567 7.15773 8.6911 6.97594 8.66074C6.47022 8.57626 5.99485 8.53061 5.6 8.53061Z" fill="#3964D8"/>
</svg>
