<svg width="16" height="16" viewBox="0 0 16 16" fill="none" xmlns="http://www.w3.org/2000/svg">
<path d="M12.0889 7.22222C11.9784 7.22222 11.8889 7.13268 11.8889 7.02222V1.2C11.8889 1.08954 11.7993 1 11.6889 1H4.31111C4.20065 1 4.11111 1.08954 4.11111 1.2V3.91111C4.11111 4.02157 4.02157 4.11111 3.91111 4.11111H1.2C1.08954 4.11111 1 4.20065 1 4.31111V14.8C1 14.9105 1.08954 15 1.2 15H7.02222C7.13268 15 7.22222 14.9105 7.22222 14.8V12.0889C7.22222 11.9784 7.31177 11.8889 7.42222 11.8889H8.57778C8.68823 11.8889 8.77778 11.9784 8.77778 12.0889V14.8C8.77778 14.9105 8.86732 15 8.97778 15H14.8C14.9105 15 15 14.9105 15 14.8V7.42222C15 7.31177 14.9105 7.22222 14.8 7.22222H12.0889ZM4.11111 13.2444C4.11111 13.3549 4.02157 13.4444 3.91111 13.4444H2.75556C2.6451 13.4444 2.55556 13.3549 2.55556 13.2444V12.0889C2.55556 11.9784 2.6451 11.8889 2.75556 11.8889H3.91111C4.02157 11.8889 4.11111 11.9784 4.11111 12.0889V13.2444ZM4.11111 10.1333C4.11111 10.2438 4.02157 10.3333 3.91111 10.3333H2.75556C2.6451 10.3333 2.55556 10.2438 2.55556 10.1333V8.97778C2.55556 8.86732 2.6451 8.77778 2.75556 8.77778H3.91111C4.02157 8.77778 4.11111 8.86732 4.11111 8.97778V10.1333ZM4.11111 7.02222C4.11111 7.13268 4.02157 7.22222 3.91111 7.22222H2.75556C2.6451 7.22222 2.55556 7.13268 2.55556 7.02222V5.86667C2.55556 5.75621 2.6451 5.66667 2.75556 5.66667H3.91111C4.02157 5.66667 4.11111 5.75621 4.11111 5.86667V7.02222ZM7.22222 10.1333C7.22222 10.2438 7.13268 10.3333 7.02222 10.3333H5.86667C5.75621 10.3333 5.66667 10.2438 5.66667 10.1333V8.97778C5.66667 8.86732 5.75621 8.77778 5.86667 8.77778H7.02222C7.13268 8.77778 7.22222 8.86732 7.22222 8.97778V10.1333ZM7.22222 7.02222C7.22222 7.13268 7.13268 7.22222 7.02222 7.22222H5.86667C5.75621 7.22222 5.66667 7.13268 5.66667 7.02222V5.86667C5.66667 5.75621 5.75621 5.66667 5.86667 5.66667H7.02222C7.13268 5.66667 7.22222 5.75621 7.22222 5.86667V7.02222ZM7.22222 3.91111C7.22222 4.02157 7.13268 4.11111 7.02222 4.11111H5.86667C5.75621 4.11111 5.66667 4.02157 5.66667 3.91111V2.75556C5.66667 2.6451 5.75621 2.55556 5.86667 2.55556H7.02222C7.13268 2.55556 7.22222 2.6451 7.22222 2.75556V3.91111ZM10.3333 10.1333C10.3333 10.2438 10.2438 10.3333 10.1333 10.3333H8.97778C8.86732 10.3333 8.77778 10.2438 8.77778 10.1333V8.97778C8.77778 8.86732 8.86732 8.77778 8.97778 8.77778H10.1333C10.2438 8.77778 10.3333 8.86732 10.3333 8.97778V10.1333ZM10.3333 7.02222C10.3333 7.13268 10.2438 7.22222 10.1333 7.22222H8.97778C8.86732 7.22222 8.77778 7.13268 8.77778 7.02222V5.86667C8.77778 5.75621 8.86732 5.66667 8.97778 5.66667H10.1333C10.2438 5.66667 10.3333 5.75621 10.3333 5.86667V7.02222ZM10.3333 3.91111C10.3333 4.02157 10.2438 4.11111 10.1333 4.11111H8.97778C8.86732 4.11111 8.77778 4.02157 8.77778 3.91111V2.75556C8.77778 2.6451 8.86732 2.55556 8.97778 2.55556H10.1333C10.2438 2.55556 10.3333 2.6451 10.3333 2.75556V3.91111ZM13.4444 13.2444C13.4444 13.3549 13.3549 13.4444 13.2444 13.4444H12.0889C11.9784 13.4444 11.8889 13.3549 11.8889 13.2444V12.0889C11.8889 11.9784 11.9784 11.8889 12.0889 11.8889H13.2444C13.3549 11.8889 13.4444 11.9784 13.4444 12.0889V13.2444ZM13.4444 10.1333C13.4444 10.2438 13.3549 10.3333 13.2444 10.3333H12.0889C11.9784 10.3333 11.8889 10.2438 11.8889 10.1333V8.97778C11.8889 8.86732 11.9784 8.77778 12.0889 8.77778H13.2444C13.3549 8.77778 13.4444 8.86732 13.4444 8.97778V10.1333Z" fill="#3964D8"/>
</svg>
