<svg width="16" height="16" viewBox="0 0 16 16" fill="none" xmlns="http://www.w3.org/2000/svg">
<path d="M2.68 2.87329C1.96 2.36801 1.784 1.38903 2.288 0.670584C2.792 -0.039966 3.792 -0.213656 4.52 0.283729C5.24 0.789008 5.416 1.76799 4.912 2.48643C4.4 3.19698 3.408 3.37067 2.68 2.87329ZM11.2 13.421H5.544C4.36 13.421 3.352 12.5683 3.176 11.4157L1.6 3.94701H0L1.592 11.6525C1.896 13.5789 3.576 15 5.552 15H11.2V13.421ZM11.384 10.263H7.48L6.656 7.02605C7.92 7.72871 9.28 8.24188 10.776 7.98924V6.30761C9.472 6.55235 8.024 6.09445 7.024 5.32074L5.712 4.31807C5.528 4.17596 5.32 4.08122 5.104 4.01806C4.848 3.94701 4.576 3.92332 4.312 3.97069H4.296C3.312 4.14438 2.656 5.0681 2.824 6.03129L3.904 10.7051C4.128 11.8262 5.112 12.6315 6.264 12.6315H11.744L14.8 15L16 13.8158L11.384 10.263Z" fill="#3964D8"/>
</svg>
