<svg width="16" height="16" viewBox="0 0 16 16" fill="none" xmlns="http://www.w3.org/2000/svg">
<path d="M1.27692 3.984L6.93934 9.64642C7.52513 10.2322 8.47487 10.2322 9.06066 9.64642L14.7231 3.984C14.899 4.28176 15 4.62909 15 5V11C15 12.1046 14.1046 13 13 13H3C1.89543 13 1 12.1046 1 11V5C1 4.62909 1.10097 4.28176 1.27692 3.984Z" fill="#3964D8"/>
<path d="M1.98403 3.2769C2.28178 3.10096 2.6291 3 3 3H13C13.3709 3 13.7182 3.10096 14.016 3.2769L8.35355 8.93932C8.15829 9.13458 7.84171 9.13458 7.64645 8.93932L1.98403 3.2769Z" fill="#3964D8"/>
</svg>
