<svg width="16" height="16" viewBox="0 0 16 16" fill="none" xmlns="http://www.w3.org/2000/svg">
<path fill-rule="evenodd" clip-rule="evenodd" d="M3.33333 2.06061C3.33333 1.47485 3.80818 1 4.39394 1H13.9394C14.5252 1 15 1.47485 15 2.06061V11.6061C15 12.1918 14.5252 12.6667 13.9394 12.6667H4.39394C3.80818 12.6667 3.33333 12.1918 3.33333 11.6061V2.06061ZM9.16667 6.83333C10.1921 6.83333 11.0227 6.00275 11.0227 4.97727C11.0227 3.9518 10.1921 3.12121 9.16667 3.12121C8.14119 3.12121 7.31061 3.9518 7.31061 4.97727C7.31061 6.00275 8.14119 6.83333 9.16667 6.83333ZM9.16667 7.76136C7.92775 7.76136 5.45455 8.38314 5.45455 9.61742V10.3333C5.45455 10.4505 5.54952 10.5455 5.66667 10.5455H12.6667C12.7838 10.5455 12.8788 10.4505 12.8788 10.3333V9.61742C12.8788 8.38314 10.4056 7.76136 9.16667 7.76136Z" fill="#3964D8"/>
<path d="M1 3.33333C1 2.689 1.52233 2.16667 2.16667 2.16667V12.6667C2.16667 13.311 2.689 13.8333 3.33333 13.8333L13.8333 13.8333C13.8333 14.4777 13.311 15 12.6667 15H3.33333C2.04467 15 1 13.9553 1 12.6667V3.33333Z" fill="#3964D8"/>
</svg>
