<svg width="24" height="24" viewBox="0 0 24 24" fill="none" xmlns="http://www.w3.org/2000/svg">
<path fill-rule="evenodd" clip-rule="evenodd" d="M8 8V9H7C5.89543 9 5 9.89543 5 11V17C5 18.1046 5.89543 19 7 19H17C18.1046 19 19 18.1046 19 17V11C19 9.89543 18.1046 9 17 9H16V8C16 5.79086 14.2091 4 12 4C9.79086 4 8 5.79086 8 8ZM12 6C10.8954 6 10 6.89543 10 8V9H14V8C14 6.89543 13.1046 6 12 6ZM12 12C11.4477 12 11 12.4477 11 13V15C11 15.5523 11.4477 16 12 16C12.5523 16 13 15.5523 13 15V13C13 12.4477 12.5523 12 12 12Z" fill="#9CB1C7"/>
</svg>
