<svg width="16" height="16" viewBox="0 0 16 16" fill="none" xmlns="http://www.w3.org/2000/svg">
<path d="M3 3.47703C3 2.76957 3.71453 2.28581 4.37139 2.54856L7.68569 3.87428C7.87552 3.95021 8 4.13406 8 4.33852V13.2615C8 13.6152 7.64274 13.8571 7.3143 13.7257L3.62861 12.2514C3.24895 12.0996 3 11.7319 3 11.323V3.47703Z" fill="#9CB1C7"/>
<path d="M3 3C3 2.44772 3.44772 2 4 2H10C10.5523 2 11 2.44772 11 3V4.8C11 4.91046 10.9105 5 10.8 5H10.2C10.0895 5 10 4.91046 10 4.8V3.3C10 3.13431 9.86569 3 9.7 3H6.75H3.5L3 4V3Z" fill="#9CB1C7"/>
<path d="M10.8 9C10.9105 9 11 9.08954 11 9.2V11C11 11.5523 10.5523 12 10 12H4C3.44772 12 3 11.5523 3 11H9.7C9.86569 11 10 10.8657 10 10.7V9.2C10 9.08954 10.0895 9 10.2 9H10.8Z" fill="#9CB1C7"/>
<path d="M9 6.2C9 6.08954 9.08954 6 9.2 6H12V5.48284C12 5.30466 12.2154 5.21543 12.3414 5.34142L13.8586 6.85858C13.9367 6.93668 13.9367 7.06332 13.8586 7.14142L12.3414 8.65858C12.2154 8.78457 12 8.69534 12 8.51716V8H9.2C9.08954 8 9 7.91046 9 7.8V6.2Z" fill="#9CB1C7"/>
</svg>
