<svg width="24" height="24" viewBox="0 0 24 24" fill="none" xmlns="http://www.w3.org/2000/svg">
<path d="M6 8C6.55228 8 7 7.55228 7 7C7 6.44772 6.55228 6 6 6C5.44772 6 5 6.44772 5 7C5 7.55228 5.44772 8 6 8Z" fill="#9CB1C7"/>
<path d="M9 6C8.44772 6 8 6.44772 8 7C8 7.55228 8.44772 8 9 8L18 8C18.5523 8 19 7.55229 19 7C19 6.44772 18.5523 6 18 6L9 6Z" fill="#9CB1C7"/>
<path d="M9 11C8.44772 11 8 11.4477 8 12C8 12.5523 8.44772 13 9 13L18 13C18.5523 13 19 12.5523 19 12C19 11.4477 18.5523 11 18 11L9 11Z" fill="#9CB1C7"/>
<path d="M8 17C8 16.4477 8.44772 16 9 16L18 16C18.5523 16 19 16.4477 19 17C19 17.5523 18.5523 18 18 18L9 18C8.44772 18 8 17.5523 8 17Z" fill="#9CB1C7"/>
<path d="M7 12C7 12.5523 6.55228 13 6 13C5.44772 13 5 12.5523 5 12C5 11.4477 5.44772 11 6 11C6.55228 11 7 11.4477 7 12Z" fill="#9CB1C7"/>
<path d="M6 18C6.55228 18 7 17.5523 7 17C7 16.4477 6.55228 16 6 16C5.44772 16 5 16.4477 5 17C5 17.5523 5.44772 18 6 18Z" fill="#9CB1C7"/>
</svg>
