<svg width="24" height="24" viewBox="0 0 24 24" fill="none" xmlns="http://www.w3.org/2000/svg">
<g clip-path="url(#clip0)">
<path d="M2.99625 16.2929H5.33122C5.68499 16.2931 6.02435 16.1528 6.27461 15.9027V15.9027C6.52465 15.6525 6.665 15.3131 6.66477 14.9593V9.62311C6.665 9.26934 6.52465 8.92998 6.27461 8.67971V8.67971C6.02435 8.42968 5.68499 8.28932 5.33122 8.28955H2.99625" stroke="#131D2D" stroke-linecap="round" stroke-linejoin="round"/>
<path d="M21.0037 8.28955H18.6698C18.316 8.28932 17.9766 8.42968 17.7264 8.67971V8.67971C17.4763 8.92998 17.336 9.26934 17.3362 9.62311V14.9593C17.336 15.3131 17.4763 15.6525 17.7264 15.9027V15.9027C17.9766 16.1528 18.316 16.2931 18.6698 16.2929H21.0037" stroke="#131D2D" stroke-linecap="round" stroke-linejoin="round"/>
<path d="M17.3562 15.1895H16.4959C16.2097 15.1892 15.9268 15.2507 15.6665 15.3695L11.4578 17.2863" stroke="#131D2D" stroke-linecap="round" stroke-linejoin="round"/>
<path d="M10.6444 9.20797C10.1377 8.90788 9.52405 8.8478 8.96874 9.0439L6.66779 9.87325" stroke="#131D2D" stroke-linecap="round" stroke-linejoin="round"/>
<path d="M17.4963 8.97583L14.6191 7.7093C14.0025 7.43794 13.2907 7.49509 12.7253 7.86137L10.1142 9.55307C9.72182 9.80739 9.46975 10.2295 9.43194 10.6955C9.39413 11.1616 9.57487 11.6188 9.92113 11.9331V11.9331C10.3706 12.3401 11.0202 12.4382 11.5698 12.1822L13.1265 11.4559" stroke="#131D2D" stroke-linecap="round" stroke-linejoin="round"/>
<path d="M13.1265 11.4549L13.9168 12.1722C14.334 12.5502 14.5727 13.0865 14.5742 13.6495C14.5757 14.2126 14.34 14.7502 13.9248 15.1304L11.907 16.9772C11.1453 17.6744 9.97816 17.6774 9.21285 16.9842L7.82627 15.7267C7.49696 15.434 7.08024 15.2581 6.64078 15.2265" stroke="#131D2D" stroke-linecap="round" stroke-linejoin="round"/>
<rect x="2.99625" y="2.99634" width="18.0075" height="18.0075" rx="4" stroke="#131D2D" stroke-linecap="round" stroke-linejoin="round"/>
</g>
<defs>
<clipPath id="clip0">
<rect width="24" height="24" fill="white"/>
</clipPath>
</defs>
</svg>
