<svg width="14" height="15" viewBox="0 0 14 15" fill="none" xmlns="http://www.w3.org/2000/svg">
<path fill-rule="evenodd" clip-rule="evenodd" d="M3 4V5H2C0.895431 5 0 5.89543 0 7V13C0 14.1046 0.89543 15 2 15H12C13.1046 15 14 14.1046 14 13V7C14 5.89543 13.1046 5 12 5H11V4C11 1.79086 9.20914 0 7 0C4.79086 0 3 1.79086 3 4ZM7 2C5.89543 2 5 2.89543 5 4V5H9V4C9 2.89543 8.10457 2 7 2ZM7 8C6.44772 8 6 8.44771 6 9V11C6 11.5523 6.44772 12 7 12C7.55228 12 8 11.5523 8 11V9C8 8.44771 7.55228 8 7 8Z" fill="#ED1A3D"/>
</svg>
