<svg width="48" height="48" viewBox="0 0 48 48" fill="none" xmlns="http://www.w3.org/2000/svg">
<circle cx="24" cy="24" r="24" fill="#131D2D"/>
<path fill-rule="evenodd" clip-rule="evenodd" d="M15.5944 15.8401C15.4163 15.8878 15.2789 16.0297 15.237 16.2093C15.195 16.3888 15.2553 16.5769 15.3938 16.6986L22.0306 22.5313L18.6277 23.4431L16.1152 22.2076C15.3544 21.8335 14.4837 21.7482 13.6648 21.9677L12.5102 22.277C12.3346 22.3241 12.1984 22.4627 12.1544 22.6391C12.1105 22.8154 12.1657 23.0018 12.2986 23.1257L16.0192 26.5945C17.154 27.6526 18.7538 28.0514 20.2525 27.6498L34.3956 23.8602C35.4922 23.5663 35.8188 22.169 34.966 21.4196C33.6835 20.2924 31.9224 19.8808 30.2731 20.3227L28.3747 20.8314L20.073 15.7646C19.2554 15.2656 18.269 15.1235 17.3438 15.3714L15.5944 15.8401ZM23.3925 22.3969L16.7557 16.5642L17.6026 16.3373C18.2635 16.1602 18.9681 16.2617 19.5521 16.6182L28.0367 21.7966C28.1535 21.8679 28.2944 21.8882 28.4266 21.8528L30.5319 21.2887C31.8583 20.9333 33.2745 21.2643 34.3059 22.1707C34.5587 22.3929 34.4619 22.8071 34.1368 22.8942L19.9937 26.6839C18.8281 26.9962 17.5837 26.686 16.7011 25.8631L13.6404 23.0095L13.9236 22.9336C14.5086 22.7769 15.1305 22.8378 15.6739 23.105L18.355 24.4234C18.4636 24.4769 18.588 24.489 18.705 24.4577L23.1919 23.2554C23.37 23.2077 23.5074 23.0658 23.5493 22.8863C23.5913 22.7067 23.531 22.5186 23.3925 22.3969Z" fill="white"/>
<path d="M13 30.2452C12.7239 30.2452 12.5 30.469 12.5 30.7452C12.5 31.0213 12.7239 31.2452 13 31.2452H36C36.2762 31.2452 36.5 31.0213 36.5 30.7452C36.5 30.469 36.2762 30.2452 36 30.2452H13Z" fill="white"/>
</svg>
