<svg width="24" height="24" viewBox="0 0 24 24" fill="none" xmlns="http://www.w3.org/2000/svg">
<circle opacity="0.1" cx="12" cy="12" r="12" fill="#9CB1C7"/>
<path d="M5.87162 12.1284C5.67636 11.9331 5.35977 11.9331 5.16451 12.1284C4.96925 12.3236 4.96925 12.6402 5.16451 12.8355L7.16451 14.8355C7.35978 15.0307 7.67636 15.0307 7.87162 14.8355L9.87162 12.8355C10.0669 12.6402 10.0669 12.3236 9.87162 12.1284C9.67636 11.9331 9.35977 11.9331 9.16451 12.1284L8.01807 13.2748L8.01807 12.2319C8.01807 9.88472 9.92086 7.98193 12.2681 7.98193C12.9843 7.98193 13.6577 8.15869 14.2486 8.47053C14.4928 8.59942 14.7953 8.50593 14.9242 8.26171C15.0531 8.01749 14.9596 7.71503 14.7153 7.58614C13.9841 7.2002 13.1508 6.98193 12.2681 6.98193C9.36857 6.98193 7.01807 9.33244 7.01807 12.2319L7.01807 13.2748L5.87162 12.1284Z" fill="#131D2D"/>
<path d="M18.8355 11.8355C18.6403 12.0307 18.3237 12.0307 18.1284 11.8355L16.982 10.689L16.982 11.7319C16.982 14.6314 14.6315 16.9819 11.732 16.9819C10.8492 16.9819 10.016 16.7637 9.2847 16.3777C9.04048 16.2488 8.94699 15.9464 9.07588 15.7022C9.20476 15.4579 9.50723 15.3644 9.75144 15.4933C10.3423 15.8052 11.0158 15.9819 11.732 15.9819C14.0792 15.9819 15.982 14.0791 15.982 11.7319L15.982 10.689L14.8355 11.8355C14.6403 12.0307 14.3237 12.0307 14.1284 11.8355C13.9332 11.6402 13.9332 11.3236 14.1284 11.1284L16.1284 9.12838C16.3237 8.93312 16.6403 8.93312 16.8355 9.12838L18.8355 11.1284C19.0308 11.3236 19.0308 11.6402 18.8355 11.8355Z" fill="#131D2D"/>
</svg>
