<svg width="24" height="24" viewBox="0 0 24 24" fill="none" xmlns="http://www.w3.org/2000/svg">
<path d="M9.4285 5.28571L11.9999 4L14.5714 5.28571V8.5L11.9999 9.78572L9.4285 8.5V5.28571Z" stroke="#131D2D" stroke-linejoin="round"/>
<path d="M3 15.5714L5.57143 14.2857L8.14286 15.5714V18.7857L5.57143 20.0714L3 18.7857V15.5714Z" stroke="#131D2D" stroke-linejoin="round"/>
<path d="M15.8572 15.5714L18.4286 14.2857L21 15.5714V18.7857L18.4286 20.0714L15.8572 18.7857V15.5714Z" stroke="#131D2D" stroke-linejoin="round"/>
<path d="M9.42865 7.85712L6.67707 9.2329C5.99951 9.57169 5.5715 10.2642 5.5715 11.0218V14.2857" stroke="#131D2D" stroke-linejoin="round"/>
<path d="M14.5714 7.85712L17.3229 9.2329C18.0005 9.57169 18.4285 10.2642 18.4285 11.0218V14.2857" stroke="#131D2D" stroke-linejoin="round"/>
<path d="M8.14282 18.7857L11.1055 20.2671C11.6686 20.5486 12.3313 20.5486 12.8944 20.2671L15.8571 18.7857" stroke="#131D2D" stroke-linejoin="round"/>
</svg>
