<svg width="24" height="24" viewBox="0 0 24 24" fill="none" xmlns="http://www.w3.org/2000/svg">
<path d="M7.99833 2.99622V6.99788C7.99833 7.5504 7.55043 7.9983 6.99791 7.9983H2.99625" stroke="#131D2D" stroke-linecap="round" stroke-linejoin="round"/>
<path d="M5.9975 21.0037H4.99708C3.89205 21.0037 2.99625 20.1079 2.99625 19.0029V7.82623C2.99625 7.29562 3.20724 6.78678 3.58249 6.41164L6.41167 3.58246C6.78681 3.2072 7.29565 2.99622 7.82626 2.99622H16.0017C17.1067 2.99622 18.0025 3.89202 18.0025 4.99705V9.99913" stroke="#131D2D" stroke-linecap="round" stroke-linejoin="round"/>
<path fill-rule="evenodd" clip-rule="evenodd" d="M10.6664 21.0038H19.3371C19.7792 21.0037 20.2033 20.8279 20.5158 20.5151C20.8284 20.2024 21.0039 19.7782 21.0037 19.3361V14.6681C21.0037 14.2258 20.8282 13.8015 20.5154 13.4888C20.2026 13.176 19.7784 13.0003 19.3361 13.0004H10.6654C10.2233 13.0005 9.79924 13.1763 9.48666 13.489C9.17409 13.8018 8.99858 14.2259 8.99875 14.6681V19.3371C8.99875 19.7792 9.17461 20.2033 9.48737 20.5158C9.80013 20.8284 10.2243 21.0039 10.6664 21.0038Z" stroke="#131D2D" stroke-linecap="round" stroke-linejoin="round"/>
<circle cx="15.0013" cy="17.0021" r="1.50063" stroke="#131D2D" stroke-linecap="round" stroke-linejoin="round"/>
</svg>
