<svg width="24" height="24" viewBox="0 0 24 24" fill="none" xmlns="http://www.w3.org/2000/svg">
<path fill-rule="evenodd" clip-rule="evenodd" d="M8 4C7.86739 4 7.74021 4.05268 7.64645 4.14645C7.55268 4.24021 7.5 4.36739 7.5 4.5V11H6C5.72386 11 5.5 11.2239 5.5 11.5C5.5 11.7761 5.72386 12 6 12H7.5V15H6C5.72386 15 5.5 15.2239 5.5 15.5C5.5 15.7761 5.72386 16 6 16H7.5V19.5C7.5 19.7761 7.72386 20 8 20C8.27614 20 8.5 19.7761 8.5 19.5V16H14C14.2761 16 14.5 15.7761 14.5 15.5C14.5 15.2239 14.2761 15 14 15H8.5V12H15C17.2091 12 19 10.2091 19 8C19 5.79086 17.2091 4 15 4H8ZM15 11H8.5V5H15C16.6569 5 18 6.34315 18 8C18 9.65685 16.6569 11 15 11Z" fill="#131D2D"/>
</svg>
