<svg width="24" height="24" viewBox="0 0 24 24" fill="none" xmlns="http://www.w3.org/2000/svg">
<path d="M4.49687 3.99664H16.0017C17.1067 3.99664 18.0025 4.89245 18.0025 5.99748V16.0016" stroke="#131D2D" stroke-linecap="round" stroke-linejoin="round"/>
<path d="M8.99875 8.01602H15.0012" stroke="#131D2D" stroke-linecap="round" stroke-linejoin="round"/>
<path d="M8.99875 12H15.0012" stroke="#131D2D" stroke-linecap="round" stroke-linejoin="round"/>
<path d="M7.49812 20.0033H19.0029C20.1079 20.0033 21.0037 19.1075 21.0037 18.0025V17.0021C21.0037 16.4495 20.5558 16.0016 20.0033 16.0016H9.99916C9.44665 16.0016 8.99875 16.4495 8.99875 17.0021V18.5027C8.99875 19.3315 8.32689 20.0033 7.49812 20.0033V20.0033C6.66935 20.0033 5.9975 19.3315 5.9975 18.5027V5.49727C5.9975 4.6685 5.32564 3.99664 4.49687 3.99664V3.99664C3.6681 3.99664 2.99625 4.6685 2.99625 5.49727V7.99831C2.99625 8.55082 3.44415 8.99873 3.99666 8.99873H5.9975" stroke="#131D2D" stroke-linecap="round" stroke-linejoin="round"/>
</svg>
