<svg width="24" height="24" viewBox="0 0 24 24" fill="none" xmlns="http://www.w3.org/2000/svg">
<path fill-rule="evenodd" clip-rule="evenodd" d="M7.5 8C7.5 5.51472 9.51472 3.5 12 3.5C14.4853 3.5 16.5 5.51472 16.5 8V10H17C18.6569 10 20 11.3431 20 13V18C20 19.6569 18.6569 21 17 21H7C5.34315 21 4 19.6569 4 18V13C4 11.3431 5.34315 10 7 10H7.5V8ZM15.5 8V10H8.5V8C8.5 6.067 10.067 4.5 12 4.5C13.933 4.5 15.5 6.067 15.5 8ZM7 11H7.5H8.5H15.5H16.5H17C18.1046 11 19 11.8954 19 13V18C19 19.1046 18.1046 20 17 20H7C5.89543 20 5 19.1046 5 18V13C5 11.8954 5.89543 11 7 11ZM12.5 14.5C12.5 14.2239 12.2761 14 12 14C11.7239 14 11.5 14.2239 11.5 14.5V16.5C11.5 16.7761 11.7239 17 12 17C12.2761 17 12.5 16.7761 12.5 16.5V14.5Z" fill="#131D2D"/>
</svg>
