<svg width="18" height="18" viewBox="0 0 18 18" fill="none" xmlns="http://www.w3.org/2000/svg">
<path d="M14.9992 5.99665H11.9983C11.584 5.99665 11.2481 5.66077 11.2481 5.24644V2.24561" stroke="#9CB1C7" stroke-linecap="round" stroke-linejoin="round"/>
<path d="M4.49628 5.99665V3.74602C4.49628 2.91737 5.16804 2.24561 5.99669 2.24561H11.3772C11.7751 2.24561 12.1567 2.40383 12.438 2.68523L14.5596 4.80682C14.841 5.08813 14.9992 5.46971 14.9992 5.86761V14.2489C14.9992 15.0776 14.3274 15.7494 13.4988 15.7494H5.99669C5.16804 15.7494 4.49628 15.0776 4.49628 14.2489V13.4987" stroke="#9CB1C7" stroke-linecap="round" stroke-linejoin="round"/>
<rect x="2.24561" y="5.99667" width="7.50209" height="7.50209" rx="3" stroke="#9CB1C7" stroke-linecap="round" stroke-linejoin="round"/>
<path d="M4.80908 8.23077H6.6846C7.09893 8.23077 7.43481 8.56665 7.43481 8.98098V9.35609C7.43481 9.77042 7.09893 10.1063 6.6846 10.1063H4.80908" stroke="#9CB1C7" stroke-linecap="round" stroke-linejoin="round"/>
<path d="M4.80906 11.2316V8.23077" stroke="#9CB1C7" stroke-linecap="round" stroke-linejoin="round"/>
</svg>
