<svg width="24" height="24" viewBox="0 0 24 24" fill="none" xmlns="http://www.w3.org/2000/svg">
<path d="M17.5 7H18C18 6.72386 17.7761 6.5 17.5 6.5V7ZM8.5 6.5C8.22386 6.5 8 6.72386 8 7C8 7.27614 8.22386 7.5 8.5 7.5V6.5ZM17 5.5C17 5.77614 17.2239 6 17.5 6C17.7761 6 18 5.77614 18 5.5H17ZM8.5 4H15.5V3H8.5V4ZM15.5 20H8.5V21H15.5V20ZM7 18.5V5.5H6V18.5H7ZM17 7V18.5H18V7H17ZM17.5 6.5H8.5V7.5H17.5V6.5ZM8.5 20C7.67157 20 7 19.3284 7 18.5H6C6 19.8807 7.11929 21 8.5 21V20ZM15.5 21C16.8807 21 18 19.8807 18 18.5H17C17 19.3284 16.3284 20 15.5 20V21ZM15.5 4C16.3284 4 17 4.67157 17 5.5H18C18 4.11929 16.8807 3 15.5 3V4ZM8.5 3C7.11929 3 6 4.11929 6 5.5H7C7 4.67157 7.67157 4 8.5 4V3Z" fill="#131D2D"/>
<rect x="11" y="18" width="2" height="1" rx="0.5" fill="#131D2D"/>
</svg>
