<svg width="24" height="24" viewBox="0 0 24 24" fill="none" xmlns="http://www.w3.org/2000/svg">
<path fill-rule="evenodd" clip-rule="evenodd" d="M12.5 9C12.5 10.4136 11.7667 11.656 10.6597 12.3674C11.5633 12.6856 12.3754 13.1979 13.046 13.8542C13.2696 12.2984 14.289 10.9997 15.6785 10.3839C14.9621 9.83567 14.5 8.9718 14.5 8C14.5 6.34315 15.8431 5 17.5 5C19.1569 5 20.5 6.34315 20.5 8C20.5 8.9718 20.0379 9.83567 19.3215 10.3839C20.8993 11.0832 22 12.6631 22 14.5V15C22 15.2761 21.7761 15.5 21.5 15.5C21.2239 15.5 21 15.2761 21 15V14.5C21 12.567 19.433 11 17.5 11C15.567 11 14 12.567 14 14.5V15C14 15.011 13.9996 15.0219 13.9989 15.0326C14.633 16.0361 15 17.2252 15 18.5V19C15 19.2761 14.7761 19.5 14.5 19.5C14.2239 19.5 14 19.2761 14 19V18.5C14 15.4624 11.5376 13 8.5 13C5.46243 13 3 15.4624 3 18.5V19C3 19.2761 2.77614 19.5 2.5 19.5C2.22386 19.5 2 19.2761 2 19V18.5C2 15.6673 3.81206 13.2578 6.34027 12.3674C5.2333 11.656 4.5 10.4136 4.5 9C4.5 6.79086 6.29086 5 8.5 5C10.7091 5 12.5 6.79086 12.5 9ZM8.5 12C10.1569 12 11.5 10.6569 11.5 9C11.5 7.34315 10.1569 6 8.5 6C6.84315 6 5.5 7.34315 5.5 9C5.5 10.6569 6.84315 12 8.5 12ZM17.5 10C18.6046 10 19.5 9.10457 19.5 8C19.5 6.89543 18.6046 6 17.5 6C16.3954 6 15.5 6.89543 15.5 8C15.5 9.10457 16.3954 10 17.5 10Z" fill="#131D2D"/>
<path d="M19.5 17.165V17.835" stroke="#131D2D" stroke-linecap="round" stroke-linejoin="round"/>
<path d="M19.5 21.165V21.835" stroke="#131D2D" stroke-linecap="round" stroke-linejoin="round"/>
<path d="M17.21 18.335L17.79 18.665" stroke="#131D2D" stroke-linecap="round" stroke-linejoin="round"/>
<path d="M21.215 20.335L21.785 20.665" stroke="#131D2D" stroke-linecap="round" stroke-linejoin="round"/>
<path d="M17.21 20.665L17.79 20.335" stroke="#131D2D" stroke-linecap="round" stroke-linejoin="round"/>
<path d="M21.215 18.665L21.785 18.335" stroke="#131D2D" stroke-linecap="round" stroke-linejoin="round"/>
<path d="M20.5607 18.4393C21.1464 19.0251 21.1464 19.9749 20.5607 20.5607C19.9749 21.1464 19.0251 21.1464 18.4393 20.5607C17.8536 19.9749 17.8536 19.0251 18.4393 18.4393C19.0251 17.8536 19.9749 17.8536 20.5607 18.4393" stroke="#131D2D" stroke-linecap="round" stroke-linejoin="round"/>
</svg>
