<svg width="24" height="24" viewBox="0 0 24 24" fill="none" xmlns="http://www.w3.org/2000/svg">
<path d="M13.1464 19.8536C13.3417 20.0488 13.6583 20.0488 13.8536 19.8536C14.0488 19.6583 14.0488 19.3417 13.8536 19.1464L13.2071 18.5L19 18.5C19.2761 18.5 19.5 18.2761 19.5 18C19.5 17.7239 19.2761 17.5 19 17.5H13.2071L13.8536 16.8536C14.0488 16.6583 14.0488 16.3417 13.8536 16.1464C13.6583 15.9512 13.3417 15.9512 13.1464 16.1464L11.6464 17.6464C11.4512 17.8417 11.4512 18.1583 11.6464 18.3536L13.1464 19.8536Z" fill="#131D2D"/>
<path d="M18.2929 21H12.5C12.2239 21 12 21.2239 12 21.5C12 21.7761 12.2239 22 12.5 22H18.2929L17.6464 22.6464C17.4512 22.8417 17.4512 23.1583 17.6464 23.3536C17.8417 23.5488 18.1583 23.5488 18.3536 23.3536L19.8536 21.8536C20.0488 21.6583 20.0488 21.3417 19.8536 21.1464L18.3536 19.6464C18.1583 19.4512 17.8417 19.4512 17.6464 19.6464C17.4512 19.8417 17.4512 20.1583 17.6464 20.3536L18.2929 21Z" fill="#131D2D"/>
<path fill-rule="evenodd" clip-rule="evenodd" d="M16 8C16 9.8939 14.947 11.5419 13.3946 12.3904C14.8462 12.8791 16.0992 13.8 17.0006 15H15.6904C14.5075 13.7673 12.8434 13 11 13C7.41015 13 4.5 15.9101 4.5 19.5V20.5C4.5 20.7761 4.27614 21 4 21C3.72386 21 3.5 20.7761 3.5 20.5V19.5C3.5 16.1952 5.63751 13.3896 8.60543 12.3904C7.05298 11.5419 6 9.8939 6 8C6 5.23858 8.23858 3 11 3C13.7614 3 16 5.23858 16 8ZM11 12C13.2091 12 15 10.2091 15 8C15 5.79086 13.2091 4 11 4C8.79086 4 7 5.79086 7 8C7 10.2091 8.79086 12 11 12Z" fill="#131D2D"/>
</svg>
