<svg width="24" height="24" viewBox="0 0 24 24" fill="none" xmlns="http://www.w3.org/2000/svg">
<path fill-rule="evenodd" clip-rule="evenodd" d="M17.4505 5.99758C17.2198 7.1399 16.2103 8 15 8C13.7897 8 12.7802 7.1399 12.5495 5.99758C12.5332 5.99918 12.5167 6 12.5 6H4.5C4.22386 6 4 5.77614 4 5.5C4 5.22386 4.22386 5 4.5 5H12.5C12.5167 5 12.5332 5.00082 12.5495 5.00242C12.7802 3.86009 13.7897 3 15 3C16.2103 3 17.2198 3.86009 17.4505 5.00242C17.4668 5.00082 17.4833 5 17.5 5H19.5C19.7761 5 20 5.22386 20 5.5C20 5.77614 19.7761 6 19.5 6H17.5C17.4833 6 17.4668 5.99918 17.4505 5.99758ZM16.5 5.5C16.5 6.32843 15.8284 7 15 7C14.1716 7 13.5 6.32843 13.5 5.5C13.5 4.67157 14.1716 4 15 4C15.8284 4 16.5 4.67157 16.5 5.5Z" fill="#131D2D"/>
<path fill-rule="evenodd" clip-rule="evenodd" d="M4 17.5C4 17.2239 4.22386 17 4.5 17H12.5C12.5167 17 12.5332 17.0008 12.5495 17.0024C12.7802 15.8601 13.7897 15 15 15C16.2103 15 17.2198 15.8601 17.4505 17.0024C17.4668 17.0008 17.4833 17 17.5 17H19.5C19.7761 17 20 17.2239 20 17.5C20 17.7761 19.7761 18 19.5 18H17.5C17.4833 18 17.4668 17.9992 17.4505 17.9976C17.2198 19.1399 16.2103 20 15 20C13.7897 20 12.7802 19.1399 12.5495 17.9976C12.5332 17.9992 12.5167 18 12.5 18H4.5C4.22386 18 4 17.7761 4 17.5ZM15 19C15.8284 19 16.5 18.3284 16.5 17.5C16.5 16.6716 15.8284 16 15 16C14.1716 16 13.5 16.6716 13.5 17.5C13.5 18.3284 14.1716 19 15 19Z" fill="#131D2D"/>
<path fill-rule="evenodd" clip-rule="evenodd" d="M19.5 12C19.7761 12 20 11.7761 20 11.5C20 11.2239 19.7761 11 19.5 11L10.5 11C10.4833 11 10.4668 11.0008 10.4505 11.0024C10.2198 9.8601 9.21033 9 8 9C6.78967 9 5.78022 9.8601 5.54952 11.0024C5.53323 11.0008 5.51671 11 5.5 11H4.5C4.22386 11 4 11.2239 4 11.5C4 11.7761 4.22386 12 4.5 12H5.5C5.51671 12 5.53323 11.9992 5.54952 11.9976C5.78022 13.1399 6.78967 14 8 14C9.21033 14 10.2198 13.1399 10.4505 11.9976C10.4668 11.9992 10.4833 12 10.5 12L19.5 12ZM6.5 11.5C6.5 10.6716 7.17157 10 8 10C8.82843 10 9.5 10.6716 9.5 11.5C9.5 12.3284 8.82843 13 8 13C7.17157 13 6.5 12.3284 6.5 11.5Z" fill="#131D2D"/>
</svg>
