<svg width="24" height="24" viewBox="0 0 24 24" fill="none" xmlns="http://www.w3.org/2000/svg">
<path fill-rule="evenodd" clip-rule="evenodd" d="M17.9473 13.1946L17.9581 13.2066L18.9482 14.244L17.466 16.7628L16.0579 16.4832L16.0553 16.4827C15.6266 16.3964 15.1798 16.4664 14.7978 16.6817C14.4146 16.8978 14.1207 17.2468 13.9766 17.6667L13.5246 18.9989H10.482L10.031 17.6698L10.0299 17.6667C9.88588 17.2468 9.59198 16.8978 9.20877 16.6817C8.82676 16.4664 8.37993 16.3964 7.95126 16.4827L7.94866 16.4832L6.54059 16.7628L5.04937 14.2286L5.9765 13.196L5.97779 13.1946C6.27087 12.8668 6.43494 12.4424 6.43494 12C6.43494 11.5576 6.27087 11.1332 5.97779 10.8054L5.04937 9.77136L6.53508 7.24655L7.93778 7.51785C8.3656 7.60334 8.8113 7.53316 9.19249 7.31826C9.5757 7.10222 9.86959 6.7532 10.0136 6.33328L10.0182 6.31982L10.4291 5.00109H13.4676L13.9186 6.33016L13.9196 6.33328C14.0637 6.7532 14.3576 7.10222 14.7408 7.31826C15.1228 7.53365 15.5697 7.60366 15.9984 7.51726L16.0009 7.51676L17.409 7.23719L18.8934 9.75989L17.9512 10.8011L17.9473 10.8054C17.6542 11.1332 17.4902 11.5576 17.4902 12C17.4902 12.4424 17.6542 12.8668 17.9473 13.1946ZM19.9957 14.1321C19.9782 13.964 19.9069 13.8056 19.792 13.6798L18.6927 12.5279C18.5622 12.382 18.4902 12.1943 18.4902 12C18.4902 11.8057 18.5622 11.618 18.6927 11.4721L19.735 10.3202C19.8499 10.1944 19.9212 10.036 19.9387 9.8679C19.9563 9.69976 19.9192 9.53049 19.8327 9.38436L18.2041 6.61673C18.1186 6.47077 17.9883 6.35507 17.8318 6.28613C17.6753 6.21718 17.5007 6.19852 17.3328 6.23278L15.802 6.53674C15.6072 6.57628 15.4044 6.54441 15.2319 6.44716C15.0594 6.3499 14.929 6.19398 14.8655 6.00882L14.3688 4.54501C14.3142 4.38614 14.2101 4.24815 14.0713 4.15054C13.9325 4.05294 13.7659 4.00066 13.5952 4.00109H10.338C10.1605 3.99198 9.98474 4.04022 9.8377 4.13844C9.69067 4.23666 9.5804 4.37945 9.52374 4.54501L9.06773 6.00882C9.00422 6.19398 8.87391 6.3499 8.70139 6.44716C8.52888 6.54441 8.32609 6.57628 8.13129 6.53674L6.5597 6.23278C6.40055 6.21069 6.2383 6.23536 6.09339 6.30369C5.94849 6.37201 5.82741 6.48093 5.7454 6.61673L4.11681 9.38436C4.02818 9.52886 3.98833 9.69718 4.00296 9.86527C4.01758 10.0334 4.08594 10.1926 4.19824 10.3202L5.2324 11.4721C5.36294 11.618 5.43494 11.8057 5.43494 12C5.43494 12.1943 5.36294 12.382 5.2324 12.5279L4.19824 13.6798C4.08594 13.8074 4.01758 13.9666 4.00296 14.1347C3.98833 14.3028 4.02818 14.4711 4.11681 14.6156L5.7454 17.3833C5.83099 17.5292 5.96129 17.6449 6.11774 17.7139C6.2742 17.7828 6.44881 17.8015 6.6167 17.7672L8.14758 17.4633C8.34237 17.4237 8.54516 17.4556 8.71768 17.5528C8.89019 17.6501 9.02051 17.806 9.08402 17.9912L9.58074 19.455C9.6374 19.6205 9.74767 19.7633 9.89471 19.8616C10.0417 19.9598 10.2175 20.008 10.395 19.9989H13.6522C13.8229 19.9993 13.9895 19.9471 14.1283 19.8495C14.2671 19.7519 14.3712 19.6139 14.4258 19.455L14.9225 17.9912C14.986 17.806 15.1164 17.6501 15.2889 17.5528C15.4614 17.4556 15.6642 17.4237 15.859 17.4633L17.3898 17.7672C17.5577 17.8015 17.7323 17.7828 17.8888 17.7139C18.0453 17.6449 18.1756 17.5292 18.2611 17.3833L19.8897 14.6156C19.9762 14.4695 20.0133 14.3002 19.9957 14.1321ZM14 12C14 13.1046 13.1046 14 12 14C10.8954 14 10 13.1046 10 12C10 10.8954 10.8954 10 12 10C13.1046 10 14 10.8954 14 12ZM15 12C15 13.6569 13.6569 15 12 15C10.3431 15 9 13.6569 9 12C9 10.3431 10.3431 9 12 9C13.6569 9 15 10.3431 15 12Z" fill="#131D2D"/>
</svg>
