<svg width="18" height="18" viewBox="0 0 18 18" fill="none" xmlns="http://www.w3.org/2000/svg">
<circle cx="9" cy="9" r="7" fill="#ED1A3D"/>
<path d="M12.182 6.52512C12.3772 6.32986 12.3772 6.01328 12.182 5.81802C11.9867 5.62275 11.6701 5.62275 11.4749 5.81802L8.99999 8.29289L6.52512 5.81802C6.32986 5.62276 6.01328 5.62276 5.81802 5.81802C5.62275 6.01329 5.62276 6.32987 5.81802 6.52513L8.29289 9L5.81802 11.4749C5.62275 11.6701 5.62275 11.9867 5.81802 12.182C6.01328 12.3772 6.32986 12.3772 6.52512 12.182L8.99999 9.70711L11.4749 12.182C11.6701 12.3772 11.9867 12.3772 12.182 12.182C12.3772 11.9867 12.3772 11.6701 12.182 11.4749L9.7071 9L12.182 6.52512Z" fill="white"/>
</svg>
