<svg width="24" height="24" viewBox="0 0 24 24" fill="none" xmlns="http://www.w3.org/2000/svg">
<path d="M9.99915 13.0004L6.42513 19.255C6.33666 19.4098 6.3373 19.6 6.4268 19.7542C6.51629 19.9084 6.68112 20.0033 6.85943 20.0033H8.54477C8.83326 20.0033 9.1077 19.8788 9.29766 19.6617L15.1263 13.0004" stroke="#131D2D" stroke-linecap="round" stroke-linejoin="round"/>
<path d="M8.85584 15.0013H6.66445C5.58215 15.0013 4.52904 14.6502 3.6632 14.0008L0.995422 12L1.99584 10.9996L0.995422 6.99792H3.99667L5.99751 9.99917H20.0033C21.6609 9.99917 23.0046 11.3429 23.0046 13.0004V13.0004C23.0046 14.1055 22.1088 15.0013 21.0038 15.0013H13.3756" stroke="#131D2D" stroke-linecap="round" stroke-linejoin="round"/>
<path d="M15.1263 9.99914L10.1731 4.33834C9.98308 4.1212 9.70862 3.99664 9.42011 3.99664H7.73477C7.55648 3.99664 7.39167 4.09158 7.30218 4.2458C7.2127 4.40001 7.21206 4.5902 7.30051 4.745L10.3029 9.99914" stroke="#131D2D" stroke-linecap="round" stroke-linejoin="round"/>
</svg>
