<svg width="24" height="24" viewBox="0 0 24 24" fill="none" xmlns="http://www.w3.org/2000/svg">
<path d="M8 6.5C8 6.22386 8.22386 6 8.5 6H15.5C15.7761 6 16 6.22386 16 6.5C16 6.77614 15.7761 7 15.5 7H8.5C8.22386 7 8 6.77614 8 6.5Z" fill="#131D2D"/>
<path d="M8.5 8C8.22386 8 8 8.22386 8 8.5C8 8.77614 8.22386 9 8.5 9H13.5C13.7761 9 14 8.77614 14 8.5C14 8.22386 13.7761 8 13.5 8H8.5Z" fill="#131D2D"/>
<path fill-rule="evenodd" clip-rule="evenodd" d="M4 5.5C4 4.11929 5.11929 3 6.5 3H18.5C19.3284 3 20 3.67157 20 4.5V15.5C20 16.3284 19.3284 17 18.5 17H6C5.44772 17 5 17.4477 5 18C5 18.5523 5.44772 19 6 19H19.5C19.7761 19 20 19.2239 20 19.5C20 19.7761 19.7761 20 19.5 20H6C4.89543 20 4 19.1046 4 18V5.5ZM5 16.2676C5.29417 16.0974 5.63571 16 6 16H18.5C18.7761 16 19 15.7761 19 15.5V4.5C19 4.22386 18.7761 4 18.5 4H6.5C5.67157 4 5 4.67157 5 5.5V16.2676Z" fill="#131D2D"/>
</svg>
