<svg width="24" height="24" viewBox="0 0 24 24" fill="none" xmlns="http://www.w3.org/2000/svg">
<path d="M12 6.5C12.2761 6.5 12.5 6.72386 12.5 7V13.7929L14.6464 11.6464C14.8417 11.4512 15.1583 11.4512 15.3536 11.6464C15.5488 11.8417 15.5488 12.1583 15.3536 12.3536L12.3536 15.3536C12.2567 15.4504 12.13 15.4992 12.003 15.5L12 15.5L11.997 15.5C11.9303 15.4996 11.8667 15.4861 11.8086 15.4621C11.7496 15.4377 11.6944 15.4015 11.6464 15.3536L8.64645 12.3536C8.45118 12.1583 8.45118 11.8417 8.64645 11.6464C8.84171 11.4512 9.15829 11.4512 9.35355 11.6464L11.5 13.7929V7C11.5 6.72386 11.7239 6.5 12 6.5Z" fill="white"/>
<path d="M6 13.5C6 13.2239 5.77614 13 5.5 13C5.22386 13 5 13.2239 5 13.5V15.5C5 16.8807 6.11929 18 7.5 18H16.5C17.8807 18 19 16.8807 19 15.5V13.5C19 13.2239 18.7761 13 18.5 13C18.2239 13 18 13.2239 18 13.5V15.5C18 16.3284 17.3284 17 16.5 17H7.5C6.67157 17 6 16.3284 6 15.5V13.5Z" fill="white"/>
</svg>
