<svg width="24" height="24" viewBox="0 0 24 24" fill="none" xmlns="http://www.w3.org/2000/svg">
<path fill-rule="evenodd" clip-rule="evenodd" d="M14.3946 12.3904C15.947 11.5419 17 9.8939 17 8C17 5.23858 14.7614 3 12 3C9.23858 3 7 5.23858 7 8C7 9.8939 8.05298 11.5419 9.60543 12.3904C6.63751 13.3896 4.5 16.1952 4.5 19.5V20.5C4.5 20.7761 4.72386 21 5 21C5.27614 21 5.5 20.7761 5.5 20.5V19.5C5.5 15.9101 8.41015 13 12 13C15.5899 13 18.5 15.9101 18.5 19.5V20.5C18.5 20.7761 18.7239 21 19 21C19.2761 21 19.5 20.7761 19.5 20.5V19.5C19.5 16.1952 17.3625 13.3896 14.3946 12.3904ZM16 8C16 10.2091 14.2091 12 12 12C9.79086 12 8 10.2091 8 8C8 5.79086 9.79086 4 12 4C14.2091 4 16 5.79086 16 8Z" fill="#131D2D"/>
</svg>
