<svg width="18" height="18" viewBox="0 0 18 18" fill="none" xmlns="http://www.w3.org/2000/svg">
<path d="M14.9991 5.99665H11.9983C11.584 5.99665 11.2481 5.66077 11.2481 5.24644V2.24561" stroke="#9CB1C7" stroke-linecap="round" stroke-linejoin="round"/>
<rect x="2.24561" y="5.99667" width="7.50208" height="7.50208" rx="3" stroke="#9CB1C7" stroke-linecap="round" stroke-linejoin="round"/>
<path d="M4.30872 8.43484L4.68382 11.0606H4.93064L5.99668 8.80995L7.06273 11.0606H7.30955L7.68465 8.43484" stroke="#9CB1C7" stroke-linecap="round" stroke-linejoin="round"/>
<path d="M4.49622 5.99665V3.74602C4.49622 2.91736 5.16798 2.24561 5.99663 2.24561H11.3771C11.775 2.24561 12.1566 2.40383 12.4379 2.68523L14.5595 4.80682C14.8409 5.08813 14.9991 5.46971 14.9991 5.86761V14.2489C14.9991 15.0776 14.3274 15.7494 13.4987 15.7494H5.99663C5.16798 15.7494 4.49622 15.0776 4.49622 14.2489V13.4987" stroke="#9CB1C7" stroke-linecap="round" stroke-linejoin="round"/>
</svg>
